<svg width="100" height="100" viewBox="0 0 100 100" fill="none" xmlns="http://www.w3.org/2000/svg">
<g clip-path="url(#clip0_2605_315)">
<rect width="100" height="100" fill="white"/>
<path fill-rule="evenodd" clip-rule="evenodd" d="M95.2675 55.054C95.2675 56.618 95.2675 58.0583 95.2675 59.6245C91.6784 59.6245 88.1779 59.6245 84.5877 59.6245C84.5877 61.4956 84.5877 63.2409 84.5877 65.1142C82.6225 65.1142 80.7424 65.1142 78.729 65.1142C78.729 68.5418 78.729 71.8446 78.729 75.2342C75.125 75.2342 71.6543 75.2342 68.0492 75.2342C68.0492 78.3144 68.0492 81.3122 68.0492 84.4359C64.7406 84.4359 61.5653 84.4359 58.3302 84.4359C58.3302 86.3081 58.3302 88.0534 58.3302 89.9278C59.8747 89.9278 61.4308 89.9278 63.119 89.9278C63.119 91.519 63.119 92.9875 63.119 94.5395C66.7241 94.5395 70.1936 94.5395 73.7482 94.5395C73.7482 96.3955 73.7482 98.1668 73.7482 100C66.6908 100 59.6564 100 52.4841 100C52.4841 98.2352 52.4841 96.4606 52.4841 94.6014C50.8257 94.6014 49.3019 94.6014 47.6401 94.6014C47.6401 93.0526 47.6401 91.5841 47.6401 89.9853C43.9683 89.9853 40.431 89.9853 36.8925 89.9853C36.8925 91.4604 36.8925 92.9365 36.8925 94.5385C38.4968 94.5385 40.0517 94.5385 41.6675 94.5385C41.6675 96.4096 41.6675 98.1527 41.6675 99.9783C31.3624 99.9783 21.0573 99.9783 10.6832 99.9783C10.6832 98.2233 10.6832 96.4802 10.6832 94.6079C12.2186 94.6079 13.7735 94.6079 15.4617 94.6079C15.4617 91.4853 15.4617 88.4886 15.4617 85.3823C16.8408 85.3823 19.3323 85.3801 19.3323 85.3801H21.3032C21.3032 85.3801 21.3124 81.2243 21.3124 79.8795C19.353 79.8795 17.474 79.8795 15.5042 79.8795C15.5042 78.3144 15.5042 76.8752 15.5042 75.2722C13.4448 75.2722 4.76584 75.2798 4.76584 75.2798C4.76584 75.2798 4.77734 70.121 4.77734 69.79C3.13624 69.79 1.61122 69.79 0 69.79C0 66.4026 0 63.1031 0 59.6885C1.51008 59.6885 3.01787 59.6885 4.74056 59.6885V55.1484C4.74056 55.1484 13.4494 55.1625 15.4341 55.1625C15.4341 56.6267 15.4341 58.0659 15.4341 59.5897C17.4016 59.5897 19.2794 59.5897 21.2952 59.5897C21.2952 56.6006 21.2952 53.6039 21.2952 50.5215C22.9535 50.5215 24.4785 50.5215 26.138 50.5215C26.138 48.6645 26.138 46.891 26.138 45.0317C28.1216 45.0317 29.9695 45.0317 31.9543 45.0317C31.9543 43.4829 31.9543 42.0144 31.9543 40.42C33.6413 40.42 35.1962 40.42 36.8408 40.42C36.8408 38.5489 36.8408 36.8036 36.8408 34.9313C45.6186 34.9313 54.3044 34.9313 63.0673 34.9313C63.0673 33.3391 63.0673 31.8728 63.0673 30.3175C61.5089 30.3175 59.9839 30.3175 58.3233 30.3175C58.3233 28.4615 58.3233 26.688 58.3233 24.8288C56.3409 24.8288 54.4929 24.8288 52.507 24.8288C52.507 23.28 52.507 21.8115 52.507 20.2171C50.8211 20.2171 49.2662 20.2171 47.6217 20.2171C47.6217 16.8155 47.6217 13.541 47.6217 10.1373C45.6553 10.1373 43.7752 10.1373 41.7687 10.1373C41.7687 7.27302 41.6767 4.53031 41.8181 1.79845C41.8686 0.824877 41.8181 0.0173659 41.8181 0.0173659C41.8181 0.0173659 46.2231 0 47.5297 0C47.5297 1.82558 47.5297 3.60015 47.5297 5.4583C49.1869 5.4583 50.7119 5.4583 52.3726 5.4583C52.3726 7.00711 52.3726 8.47561 52.3726 10.0743C54.4205 10.0743 56.3386 10.0743 58.2555 10.0743C58.2555 6.76399 58.2555 3.45363 58.2555 0.0705486C59.8862 0.0705486 61.409 0.0705486 63.0696 0.0705486C63.0696 1.80279 63.0696 3.57627 63.0696 5.47675C64.7555 5.47675 66.3104 5.47675 67.9561 5.47675C67.9561 7.04076 67.9561 8.48103 67.9561 10.0483C69.9213 10.0483 71.8014 10.0483 73.8149 10.0483C73.8149 11.9455 73.8149 13.719 73.8149 15.5782C75.4732 15.5782 76.9982 15.5782 78.6577 15.5782C78.6577 20.496 78.6577 25.3281 78.6577 30.248C84.2142 30.248 89.6627 30.248 95.2066 30.248H95.2376V34.8272C96.935 34.8272 98.4405 34.8272 100 34.8272C100 41.5911 100 48.2574 100 55.054C98.4669 55.054 96.912 55.054 95.2675 55.054ZM47.4872 65.2304C45.5462 65.2304 43.6982 65.2304 41.7192 65.2304C41.7192 68.5863 41.7192 71.8869 41.7192 75.3123C40.0345 75.3123 38.4796 75.3123 36.8396 75.3123C36.8396 76.8763 36.8396 78.3155 36.8396 79.8774C34.8744 79.8774 32.9966 79.8774 31.1153 79.8774C31.1153 83.3049 31.1153 86.6044 31.1153 89.9539C33.0851 89.9539 34.9721 89.9539 36.8592 89.9539C36.8592 88.4517 36.8592 86.9485 36.8592 85.3237C38.5968 85.3237 40.1517 85.3237 41.7905 85.3237C41.7905 83.4525 41.7905 81.7084 41.7905 79.8405C43.7568 79.8405 45.6358 79.8405 47.4872 79.8405C47.4872 74.8836 47.4872 70.0537 47.4872 65.2304ZM68.9628 14.7045C66.9793 14.6644 65.2152 14.6763 63.1064 14.6763V10.1058H58.2888C58.2888 11.914 58.2888 13.7212 58.2888 15.6499H63.204V24.7246H68.9801C68.9801 21.3274 68.9939 18.029 68.9628 14.7045ZM89.3421 34.9281C84.1866 34.9281 79.0967 34.9281 73.9206 34.9281C73.9206 40.1585 73.9206 45.2955 73.9206 50.401C79.1277 50.401 84.2464 50.401 89.3421 50.401C89.3421 45.1989 89.3421 40.0879 89.3421 34.9281ZM84.6486 44.9981C82.8053 44.9981 80.9366 44.9981 78.976 44.9981C78.976 43.4786 78.976 42.0459 78.976 40.5557C80.8723 40.5557 82.7122 40.5557 84.6486 40.5557C84.6486 41.9992 84.6486 43.458 84.6486 44.9981Z" fill="#00FF36"/>
</g>
<defs>
<clipPath id="clip0_2605_315">
<rect width="100" height="100" fill="white"/>
</clipPath>
</defs>
</svg>
