<svg width="133" height="62" viewBox="0 0 133 62" fill="none" xmlns="http://www.w3.org/2000/svg">
<g id="Frame 147">
<path id="Union" fill-rule="evenodd" clip-rule="evenodd" d="M6 0H113H119V6V15H127H131H133V47H131H127H119V56V59V62H0V59V56V6V0H6ZM127 41V21H119V41H127ZM113 21V41V47V56H6L6 6H113V15V21Z" fill="#00A222"/>
<path id="Subtract" fill-rule="evenodd" clip-rule="evenodd" d="M12 11H22V12H23V50H22V51H12V50H11V12H12V11Z" fill="#00FF36"/>
<path id="Subtract_2" fill-rule="evenodd" clip-rule="evenodd" d="M63 11H73V12H74V50H73V51H63V50H62V12H63V11Z" fill="#00FF36"/>
<path id="Subtract_3" fill-rule="evenodd" clip-rule="evenodd" d="M29 11H39V12H40V50H39V51H29V50H28V12H29V11Z" fill="#00FF36"/>
<path id="Subtract_4" fill-rule="evenodd" clip-rule="evenodd" d="M80 11H90V12H91V50H90V51H80V50H79V12H80V11Z" fill="#00FF36"/>
<path id="Subtract_5" fill-rule="evenodd" clip-rule="evenodd" d="M46 11H56V12H57V50H56V51H46V50H45V12H46V11Z" fill="#00FF36"/>
</g>
</svg>
