<svg width="79" height="84" viewBox="0 0 79 84" fill="none" xmlns="http://www.w3.org/2000/svg">
<g id="Rabbit">
<path id="Vector" fill-rule="evenodd" clip-rule="evenodd" d="M75.2613 46.2454C75.2613 47.5591 75.2613 48.769 75.2613 50.0846C72.426 50.0846 69.6606 50.0846 66.8243 50.0846C66.8243 51.6563 66.8243 53.1224 66.8243 54.696C65.2718 54.696 63.7865 54.696 62.1959 54.696C62.1959 57.5751 62.1959 60.3494 62.1959 63.1967C59.3487 63.1967 56.6069 63.1967 53.7589 63.1967C53.7589 65.7841 53.7589 68.3023 53.7589 70.9261C51.145 70.9261 48.6366 70.9261 46.0808 70.9261C46.0808 72.4988 46.0808 73.9649 46.0808 75.5394C47.301 75.5394 48.5303 75.5394 49.864 75.5394C49.864 76.8759 49.864 78.1095 49.864 79.4132C52.7121 79.4132 55.453 79.4132 58.2611 79.4132C58.2611 80.9722 58.2611 82.4601 58.2611 84C52.6857 84 47.1285 84 41.4624 84C41.4624 82.5176 41.4624 81.0269 41.4624 79.4652C40.1523 79.4652 38.9485 79.4652 37.6357 79.4652C37.6357 78.1642 37.6357 76.9306 37.6357 75.5877C34.7349 75.5877 31.9405 75.5877 29.1451 75.5877C29.1451 76.8267 29.1451 78.0666 29.1451 79.4123C30.4125 79.4123 31.6409 79.4123 32.9174 79.4123C32.9174 80.9841 32.9174 82.4483 32.9174 83.9818C24.7763 83.9818 16.6353 83.9818 8.43974 83.9818C8.43974 82.5075 8.43974 81.0433 8.43974 79.4706C9.65268 79.4706 10.8811 79.4706 12.2147 79.4706C12.2147 76.8477 12.2147 74.3304 12.2147 71.7211C13.3042 71.7211 15.2725 71.7193 15.2725 71.7193H16.8295C16.8295 71.7193 16.8368 68.2284 16.8368 67.0988C15.2889 67.0988 13.8045 67.0988 12.2483 67.0988C12.2483 65.7841 12.2483 64.5752 12.2483 63.2286C10.6214 63.2286 3.76502 63.235 3.76502 63.235C3.76502 63.235 3.7741 58.9017 3.7741 58.6236C2.47763 58.6236 1.27286 58.6236 0 58.6236C0 55.7782 0 53.0066 0 50.1383C1.19297 50.1383 2.38412 50.1383 3.74504 50.1383V46.3247C3.74504 46.3247 10.625 46.3365 12.193 46.3365C12.193 47.5664 12.193 48.7753 12.193 50.0554C13.7473 50.0554 15.2308 50.0554 16.8232 50.0554C16.8232 47.5445 16.8232 45.0273 16.8232 42.4381C18.1333 42.4381 19.338 42.4381 20.649 42.4381C20.649 40.8781 20.649 39.3884 20.649 37.8267C22.2161 37.8267 23.6759 37.8267 25.2439 37.8267C25.2439 36.5257 25.2439 35.2921 25.2439 33.9528C26.5766 33.9528 27.805 33.9528 29.1042 33.9528C29.1042 32.3811 29.1042 30.915 29.1042 29.3423C36.0387 29.3423 42.9005 29.3423 49.8232 29.3423C49.8232 28.0049 49.8232 26.7731 49.8232 25.4667C48.5921 25.4667 47.3873 25.4667 46.0754 25.4667C46.0754 23.9077 46.0754 22.4179 46.0754 20.8562C44.5093 20.8562 43.0494 20.8562 41.4806 20.8562C41.4806 19.5552 41.4806 18.3216 41.4806 16.9823C40.1487 16.9823 38.9203 16.9823 37.6211 16.9823C37.6211 14.1251 37.6211 11.3744 37.6211 8.51533C36.0677 8.51533 34.5824 8.51533 32.9972 8.51533C32.9972 6.10934 32.9246 3.80546 33.0363 1.5107C33.0762 0.692896 33.0363 0.0145873 33.0363 0.0145873C33.0363 0.0145873 36.5162 0 37.5485 0C37.5485 1.53349 37.5485 3.02413 37.5485 4.58497C38.8577 4.58497 40.0624 4.58497 41.3743 4.58497C41.3743 5.88597 41.3743 7.11951 41.3743 8.46245C42.9922 8.46245 44.5075 8.46245 46.0218 8.46245C46.0218 5.68175 46.0218 2.90105 46.0218 0.0592609C47.3101 0.0592609 48.5131 0.0592609 49.825 0.0592609C49.825 1.51434 49.825 3.00407 49.825 4.60047C51.1568 4.60047 52.3852 4.60047 53.6853 4.60047C53.6853 5.91423 53.6853 7.12407 53.6853 8.44057C55.2378 8.44057 56.7231 8.44057 58.3137 8.44057C58.3137 10.0342 58.3137 11.524 58.3137 13.0857C59.6238 13.0857 60.8286 13.0857 62.1396 13.0857C62.1396 17.2167 62.1396 21.2756 62.1396 25.4083C66.5292 25.4083 70.8335 25.4083 75.2132 25.4083H75.2377V29.2548C76.5787 29.2548 77.768 29.2548 79 29.2548C79 34.9366 79 40.5363 79 46.2454C77.7889 46.2454 76.5605 46.2454 75.2613 46.2454ZM37.5149 54.7935C35.9815 54.7935 34.5216 54.7935 32.9582 54.7935C32.9582 57.6125 32.9582 60.385 32.9582 63.2623C31.6272 63.2623 30.3989 63.2623 29.1033 63.2623C29.1033 64.5761 29.1033 65.785 29.1033 67.097C27.5508 67.097 26.0673 67.097 24.5811 67.097C24.5811 69.9761 24.5811 72.7477 24.5811 75.5613C26.1372 75.5613 27.628 75.5613 29.1187 75.5613C29.1187 74.2995 29.1187 73.0367 29.1187 71.6719C30.4915 71.6719 31.7198 71.6719 33.0145 71.6719C33.0145 70.1001 33.0145 68.635 33.0145 67.066C34.5679 67.066 36.0523 67.066 37.5149 67.066C37.5149 62.9022 37.5149 58.8451 37.5149 54.7935ZM54.4806 12.3518C52.9136 12.3181 51.52 12.3281 49.854 12.3281V8.48889H46.0482C46.0482 10.0078 46.0482 11.5258 46.0482 13.1459H49.9312V20.7687H54.4942C54.4942 17.915 54.5051 15.1443 54.4806 12.3518ZM70.5802 29.3396C66.5074 29.3396 62.4864 29.3396 58.3973 29.3396C58.3973 33.7331 58.3973 38.0482 58.3973 42.3369C62.5109 42.3369 66.5546 42.3369 70.5802 42.3369C70.5802 37.9671 70.5802 33.6738 70.5802 29.3396ZM66.8724 37.7984C65.4162 37.7984 63.9399 37.7984 62.3911 37.7984C62.3911 36.522 62.3911 35.3186 62.3911 34.0668C63.8891 34.0668 65.3426 34.0668 66.8724 34.0668C66.8724 35.2794 66.8724 36.5047 66.8724 37.7984Z" fill="#00FF36"/>
</g>
</svg>
