<svg width="60" height="63" viewBox="0 0 60 63" fill="none" xmlns="http://www.w3.org/2000/svg">
<g id="Rabbit">
<path id="Vector" fill-rule="evenodd" clip-rule="evenodd" d="M57.0207 34.5355C57.0207 35.5166 57.0207 36.4201 57.0207 37.4026C54.8914 37.4026 52.8145 37.4026 50.6845 37.4026C50.6845 38.5763 50.6845 39.6712 50.6845 40.8463C49.5186 40.8463 48.4032 40.8463 47.2086 40.8463C47.2086 42.9964 47.2086 45.0683 47.2086 47.1946C45.0705 47.1946 43.0114 47.1946 40.8725 47.1946C40.8725 49.1268 40.8725 51.0073 40.8725 52.9668C38.9095 52.9668 37.0257 52.9668 35.1064 52.9668C35.1064 54.1413 35.1064 55.2361 35.1064 56.4119C36.0227 56.4119 36.9459 56.4119 37.9475 56.4119C37.9475 57.41 37.9475 58.3312 37.9475 59.3049C40.0864 59.3049 42.1448 59.3049 44.2536 59.3049C44.2536 60.4691 44.2536 61.5803 44.2536 62.7302C40.0666 62.7302 35.8932 62.7302 31.638 62.7302C31.638 61.6232 31.638 60.51 31.638 59.3437C30.6541 59.3437 29.75 59.3437 28.7641 59.3437C28.7641 58.3721 28.7641 57.4509 28.7641 56.448C26.5857 56.448 24.487 56.448 22.3877 56.448C22.3877 57.3733 22.3877 58.2992 22.3877 59.3042C23.3395 59.3042 24.262 59.3042 25.2207 59.3042C25.2207 60.478 25.2207 61.5714 25.2207 62.7166C19.1068 62.7166 12.993 62.7166 6.83818 62.7166C6.83818 61.6157 6.83818 60.5222 6.83818 59.3477C7.74909 59.3477 8.67159 59.3477 9.67318 59.3477C9.67318 57.3889 9.67318 55.5091 9.67318 53.5605C10.4914 53.5605 11.9695 53.5592 11.9695 53.5592H13.1389C13.1389 53.5592 13.1443 50.9522 13.1443 50.1086C11.9818 50.1086 10.867 50.1086 9.69841 50.1086C9.69841 49.1268 9.69841 48.224 9.69841 47.2184C8.47659 47.2184 3.3275 47.2232 3.3275 47.2232C3.3275 47.2232 3.33432 43.9871 3.33432 43.7794C2.36068 43.7794 1.45591 43.7794 0.5 43.7794C0.5 41.6545 0.5 39.5847 0.5 37.4427C1.39591 37.4427 2.29045 37.4427 3.3125 37.4427V34.5947C3.3125 34.5947 8.47932 34.6036 9.65682 34.6036C9.65682 35.522 9.65682 36.4249 9.65682 37.3808C10.8241 37.3808 11.9382 37.3808 13.1341 37.3808C13.1341 35.5057 13.1341 33.6259 13.1341 31.6923C14.118 31.6923 15.0227 31.6923 16.0073 31.6923C16.0073 30.5273 16.0073 29.4148 16.0073 28.2485C17.1841 28.2485 18.2805 28.2485 19.458 28.2485C19.458 27.2769 19.458 26.3557 19.458 25.3556C20.4589 25.3556 21.3814 25.3556 22.357 25.3556C22.357 24.1818 22.357 23.087 22.357 21.9125C27.5648 21.9125 32.718 21.9125 37.9168 21.9125C37.9168 20.9137 37.9168 19.9939 37.9168 19.0182C36.9923 19.0182 36.0875 19.0182 35.1023 19.0182C35.1023 17.854 35.1023 16.7414 35.1023 15.5751C33.9261 15.5751 32.8298 15.5751 31.6516 15.5751C31.6516 14.6036 31.6516 13.6824 31.6516 12.6822C30.6514 12.6822 29.7289 12.6822 28.7532 12.6822C28.7532 10.5484 28.7532 8.4943 28.7532 6.35915C27.5866 6.35915 26.4711 6.35915 25.2807 6.35915C25.2807 4.56238 25.2261 2.84187 25.31 1.12817C25.34 0.517447 25.31 0.0108936 25.31 0.0108936C25.31 0.0108936 27.9234 0 28.6986 0C28.6986 1.14519 28.6986 2.25838 28.6986 3.424C29.6818 3.424 30.5866 3.424 31.5718 3.424C31.5718 4.39558 31.5718 5.31677 31.5718 6.31966C32.7868 6.31966 33.9248 6.31966 35.062 6.31966C35.062 4.24306 35.062 2.16647 35.062 0.0442553C36.0295 0.0442553 36.933 0.0442553 37.9182 0.0442553C37.9182 1.13089 37.9182 2.2434 37.9182 3.43557C38.9184 3.43557 39.8409 3.43557 40.8173 3.43557C40.8173 4.41668 40.8173 5.32017 40.8173 6.30332C41.9832 6.30332 43.0986 6.30332 44.2932 6.30332C44.2932 7.49345 44.2932 8.60596 44.2932 9.77226C45.277 9.77226 46.1818 9.77226 47.1664 9.77226C47.1664 12.8572 47.1664 15.8883 47.1664 18.9746C50.463 18.9746 53.6955 18.9746 56.9845 18.9746H57.003V21.8472C58.01 21.8472 58.9032 21.8472 59.8284 21.8472C59.8284 26.0902 59.8284 30.272 59.8284 34.5355C58.9189 34.5355 57.9964 34.5355 57.0207 34.5355ZM28.6734 40.9192C27.5218 40.9192 26.4255 40.9192 25.2514 40.9192C25.2514 43.0243 25.2514 45.0948 25.2514 47.2436C24.2518 47.2436 23.3293 47.2436 22.3564 47.2436C22.3564 48.2247 22.3564 49.1275 22.3564 50.1072C21.1905 50.1072 20.0764 50.1072 18.9602 50.1072C18.9602 52.2574 18.9602 54.3272 18.9602 56.4283C20.1289 56.4283 21.2484 56.4283 22.368 56.4283C22.368 55.486 22.368 54.543 22.368 53.5238C23.3989 53.5238 24.3214 53.5238 25.2936 53.5238C25.2936 52.35 25.2936 51.2558 25.2936 50.0841C26.4602 50.0841 27.575 50.0841 28.6734 50.0841C28.6734 46.9746 28.6734 43.9449 28.6734 40.9192ZM41.4145 9.22417C40.2377 9.19898 39.1911 9.20647 37.94 9.20647V6.3394H35.0818C35.0818 7.4737 35.0818 8.60732 35.0818 9.81719H37.998V15.5098H41.4248C41.4248 13.3787 41.433 11.3096 41.4145 9.22417ZM53.5052 21.9105C50.4466 21.9105 47.4268 21.9105 44.3559 21.9105C44.3559 25.1915 44.3559 28.414 44.3559 31.6167C47.4452 31.6167 50.482 31.6167 53.5052 31.6167C53.5052 28.3534 53.5052 25.1472 53.5052 21.9105ZM50.7207 28.2274C49.627 28.2274 48.5184 28.2274 47.3552 28.2274C47.3552 27.2742 47.3552 26.3755 47.3552 25.4407C48.4802 25.4407 49.5718 25.4407 50.7207 25.4407C50.7207 26.3462 50.7207 27.2613 50.7207 28.2274Z" fill="white"/>
</g>
</svg>
