<svg width="9" height="16" viewBox="0 0 9 16" fill="none" xmlns="http://www.w3.org/2000/svg">
<path d="M0.697266 2.63184H1.40137V3.29492H0.697266V2.63184ZM3.5 2.63184H4.2041V3.29492H3.5V2.63184ZM6.30273 2.63184H7.00684V3.29492H6.30273V2.63184ZM2.09863 3.95801H2.80273V4.61426H2.09863V3.95801ZM4.90137 3.95801H5.60547V4.61426H4.90137V3.95801ZM7.7041 3.95801H8.40137V4.61426H7.7041V3.95801ZM6.30273 5.27734H7.00684V5.93359H6.30273V5.27734ZM3.5 5.27734H4.2041V5.93359H3.5V5.27734ZM0.697266 5.27734H1.40137V5.93359H0.697266V5.27734ZM7.7041 6.59668H8.40137V7.25977H7.7041V6.59668ZM4.90137 6.59668H5.60547V7.25977H4.90137V6.59668ZM2.09863 6.59668H2.80273V7.25977H2.09863V6.59668ZM0.697266 7.92285H1.40137V8.5791H0.697266V7.92285ZM3.5 7.92285H4.2041V8.5791H3.5V7.92285ZM6.30273 7.92285H7.00684V8.5791H6.30273V7.92285ZM7.7041 9.24219H8.40137V9.89844H7.7041V9.24219ZM4.90137 9.24219H5.60547V9.89844H4.90137V9.24219ZM2.09863 9.24219H2.80273V9.89844H2.09863V9.24219ZM0.697266 10.5615H1.40137V11.2246H0.697266V10.5615ZM3.5 10.5615H4.2041V11.2246H3.5V10.5615ZM6.30273 10.5615H7.00684V11.2246H6.30273V10.5615ZM2.09863 11.8877H2.80273V12.5439H2.09863V11.8877ZM4.90137 11.8877H5.60547V12.5439H4.90137V11.8877ZM7.7041 11.8877H8.40137V12.5439H7.7041V11.8877ZM6.30273 13.207H7.00684V13.8701H6.30273V13.207ZM3.5 13.207H4.2041V13.8701H3.5V13.207ZM0.697266 13.207H1.40137V13.8701H0.697266V13.207ZM2.09863 14.5264H2.80273V15.1895H2.09863V14.5264ZM4.90137 14.5264H5.60547V15.1895H4.90137V14.5264ZM7.7041 14.5264H8.40137V15.1895H7.7041V14.5264ZM2.09863 1.3125H2.80273V1.97559H2.09863V1.3125ZM4.90137 1.3125H5.60547V1.97559H4.90137V1.3125ZM7.7041 1.3125H8.40137V1.97559H7.7041V1.3125ZM0.697266 0H1.40137V0.649414H0.697266V0ZM3.5 0H4.2041V0.649414H3.5V0ZM6.30273 0H7.00684V0.649414H6.30273V0Z" fill="#9E9E9E"/>
</svg>
