<svg width="9" height="16" viewBox="0 0 9 16" fill="none" xmlns="http://www.w3.org/2000/svg">
<g id="Frame 166">
<path id="&#226;&#150;&#147;" d="M8.40137 1.3125H7.7041V1.97559H8.40137V3.95801H7.7041V4.61426H8.40137V6.59668H7.7041V7.25977H8.40137V9.24219H7.7041V9.90527H8.40137V11.8877H7.7041V12.5439H8.40137V14.5264H7.7041V15.1895H8.40137V15.8594H0V13.8701H0.697266V13.207H0V11.2246H0.697266V10.5615H0V8.5791H0.697266V7.92285H0V5.94043H0.697266V5.27734H0V3.29492H0.697266V2.63184H0V0.649414H0.697266V0H1.40137V0.649414H2.09863V0H2.80273V0.649414H3.5V0H4.2041V0.649414H4.90137V0H5.60547V0.649414H6.30273V0H7.00684V0.649414H7.7041V0H8.40137V1.3125ZM0.697266 3.95801V4.61426H1.40137V3.95801H0.697266ZM2.09863 3.95801V4.61426H2.80273V3.95801H2.09863ZM3.5 3.95801V4.61426H4.2041V3.95801H3.5ZM4.90137 3.95801V4.61426H5.60547V3.95801H4.90137ZM6.30273 3.95801V4.61426H7.00684V3.95801H6.30273ZM7.7041 5.27734H7.00684V5.94043H7.7041V5.27734ZM6.30273 5.27734H5.60547V5.94043H6.30273V5.27734ZM4.90137 5.27734H4.2041V5.94043H4.90137V5.27734ZM3.5 5.27734H2.80273V5.94043H3.5V5.27734ZM2.09863 5.27734H1.40137V5.94043H2.09863V5.27734ZM0.697266 6.59668V7.25977H1.40137V6.59668H0.697266ZM2.09863 6.59668V7.25977H2.80273V6.59668H2.09863ZM3.5 6.59668V7.25977H4.2041V6.59668H3.5ZM4.90137 6.59668V7.25977H5.60547V6.59668H4.90137ZM6.30273 6.59668V7.25977H7.00684V6.59668H6.30273ZM2.09863 7.92285H1.40137V8.5791H2.09863V7.92285ZM2.80273 7.92285V8.5791H3.5V7.92285H2.80273ZM4.2041 7.92285V8.5791H4.90137V7.92285H4.2041ZM5.60547 7.92285V8.5791H6.30273V7.92285H5.60547ZM7.00684 7.92285V8.5791H7.7041V7.92285H7.00684ZM0.697266 9.24219V9.90527H1.40137V9.24219H0.697266ZM3.5 9.24219V9.90527H4.2041V9.24219H3.5ZM2.80273 9.90527V9.24219H2.09863V9.90527H2.80273ZM4.90137 9.24219V9.90527H5.60547V9.24219H4.90137ZM6.30273 9.24219V9.90527H7.00684V9.24219H6.30273ZM7.7041 11.2246V10.5615H7.00684V11.2246H7.7041ZM6.30273 11.2246V10.5615H5.60547V11.2246H6.30273ZM4.90137 11.2246V10.5615H4.2041V11.2246H4.90137ZM3.5 11.2246V10.5615H2.80273V11.2246H3.5ZM2.09863 11.2246V10.5615H1.40137V11.2246H2.09863ZM0.697266 11.8877V12.5439H1.40137V11.8877H0.697266ZM2.09863 11.8877V12.5439H2.80273V11.8877H2.09863ZM3.5 11.8877V12.5439H4.2041V11.8877H3.5ZM4.90137 11.8877V12.5439H5.60547V11.8877H4.90137ZM6.30273 11.8877V12.5439H7.00684V11.8877H6.30273ZM7.7041 13.8701V13.207H7.00684V13.8701H7.7041ZM6.30273 13.8701V13.207H5.60547V13.8701H6.30273ZM4.90137 13.8701V13.207H4.2041V13.8701H4.90137ZM3.5 13.8701V13.207H2.80273V13.8701H3.5ZM2.09863 13.8701V13.207H1.40137V13.8701H2.09863ZM0.697266 14.5264V15.1895H1.40137V14.5264H0.697266ZM2.09863 14.5264V15.1895H2.80273V14.5264H2.09863ZM3.5 14.5264V15.1895H4.2041V14.5264H3.5ZM4.90137 14.5264V15.1895H5.60547V14.5264H4.90137ZM6.30273 14.5264V15.1895H7.00684V14.5264H6.30273ZM7.7041 2.63184H7.00684V3.29492H7.7041V2.63184ZM6.30273 2.63184H5.60547V3.29492H6.30273V2.63184ZM4.90137 2.63184H4.2041V3.29492H4.90137V2.63184ZM3.5 2.63184H2.80273V3.29492H3.5V2.63184ZM2.09863 2.63184H1.40137V3.29492H2.09863V2.63184ZM7.00684 1.3125H6.30273V1.97559H7.00684V1.3125ZM5.60547 1.3125H4.90137V1.97559H5.60547V1.3125ZM4.2041 1.3125H3.5V1.97559H4.2041V1.3125ZM2.80273 1.3125H2.09863V1.97559H2.80273V1.3125ZM1.40137 1.3125H0.697266V1.97559H1.40137V1.3125Z" fill="#9E9E9E"/>
</g>
</svg>
