<svg width="402" height="403" viewBox="0 0 402 403" fill="none" xmlns="http://www.w3.org/2000/svg">
<path d="M4.20117 4.1875V6.19727C4.20117 6.48633 4.14648 6.69336 4.03711 6.81836C3.92773 6.93945 3.7832 7 3.60352 7C3.42383 7 3.27734 6.93945 3.16406 6.81836C3.05469 6.69336 3 6.48633 3 6.19727V4.1875H1.2832C0.994141 4.1875 0.787109 4.13281 0.662109 4.02344C0.541016 3.91016 0.480469 3.76367 0.480469 3.58398C0.480469 3.4043 0.541016 3.25977 0.662109 3.15039C0.787109 3.03711 0.994141 2.98242 1.2832 2.98633H3V0.982422C3 0.697266 3.05469 0.492187 3.16406 0.367188C3.27734 0.242188 3.42383 0.179688 3.60352 0.179688C3.7832 0.179688 3.92773 0.242188 4.03711 0.367188C4.15039 0.488281 4.20703 0.693359 4.20703 0.982422L4.20117 2.98633H5.91797C6.20703 2.98633 6.41211 3.04102 6.5332 3.15039C6.6582 3.25977 6.7207 3.4043 6.7207 3.58398C6.7207 3.76367 6.6582 3.91016 6.5332 4.02344C6.41211 4.13281 6.20703 4.1875 5.91797 4.1875H4.20117ZM12.9242 4.14062H7.90859V3.04492H12.9242V4.14062ZM19.7312 4.14062H14.7156V3.04492H19.7312V4.14062ZM26.5383 4.14062H21.5227V3.04492H26.5383V4.14062ZM33.3453 4.14062H28.3297V3.04492H33.3453V4.14062ZM40.1523 4.14062H35.1367V3.04492H40.1523V4.14062ZM46.9594 4.14062H41.9437V3.04492H46.9594V4.14062ZM53.7664 4.14062H48.7508V3.04492H53.7664V4.14062ZM60.5734 4.14062H55.5578V3.04492H60.5734V4.14062ZM67.3805 4.14062H62.3648V3.04492H67.3805V4.14062ZM74.1875 4.14062H69.1719V3.04492H74.1875V4.14062ZM80.9945 4.14062H75.9789V3.04492H80.9945V4.14062ZM87.8016 4.14062H82.7859V3.04492H87.8016V4.14062ZM94.6086 4.14062H89.593V3.04492H94.6086V4.14062ZM101.416 4.14062H96.4V3.04492H101.416V4.14062ZM108.223 4.14062H103.207V3.04492H108.223V4.14062ZM115.03 4.14062H110.014V3.04492H115.03V4.14062ZM121.837 4.14062H116.821V3.04492H121.837V4.14062ZM128.644 4.14062H123.628V3.04492H128.644V4.14062ZM135.451 4.14062H130.435V3.04492H135.451V4.14062ZM142.258 4.14062H137.242V3.04492H142.258V4.14062ZM149.065 4.14062H144.049V3.04492H149.065V4.14062ZM155.872 4.14062H150.856V3.04492H155.872V4.14062ZM162.679 4.14062H157.663V3.04492H162.679V4.14062ZM169.486 4.14062H164.47V3.04492H169.486V4.14062ZM176.293 4.14062H171.277V3.04492H176.293V4.14062ZM183.1 4.14062H178.084V3.04492H183.1V4.14062ZM189.907 4.14062H184.891V3.04492H189.907V4.14062ZM196.714 4.14062H191.698V3.04492H196.714V4.14062ZM203.521 4.14062H198.505V3.04492H203.521V4.14062ZM210.328 4.14062H205.312V3.04492H210.328V4.14062ZM217.135 4.14062H212.12V3.04492H217.135V4.14062ZM223.942 4.14062H218.927V3.04492H223.942V4.14062ZM230.749 4.14062H225.734V3.04492H230.749V4.14062ZM237.556 4.14062H232.541V3.04492H237.556V4.14062ZM244.363 4.14062H239.348V3.04492H244.363V4.14062ZM251.17 4.14062H246.155V3.04492H251.17V4.14062ZM257.977 4.14062H252.962V3.04492H257.977V4.14062ZM264.784 4.14062H259.769V3.04492H264.784V4.14062ZM271.591 4.14062H266.576V3.04492H271.591V4.14062ZM278.398 4.14062H273.383V3.04492H278.398V4.14062ZM285.205 4.14062H280.19V3.04492H285.205V4.14062ZM292.013 4.14062H286.997V3.04492H292.013V4.14062ZM298.82 4.14062H293.804V3.04492H298.82V4.14062ZM305.627 4.14062H300.611V3.04492H305.627V4.14062ZM312.434 4.14062H307.418V3.04492H312.434V4.14062ZM319.241 4.14062H314.225V3.04492H319.241V4.14062ZM326.048 4.14062H321.032V3.04492H326.048V4.14062ZM332.855 4.14062H327.839V3.04492H332.855V4.14062ZM339.662 4.14062H334.646V3.04492H339.662V4.14062ZM346.469 4.14062H341.453V3.04492H346.469V4.14062ZM353.276 4.14062H348.26V3.04492H353.276V4.14062ZM360.083 4.14062H355.067V3.04492H360.083V4.14062ZM366.89 4.14062H361.874V3.04492H366.89V4.14062ZM373.697 4.14062H368.681V3.04492H373.697V4.14062ZM380.504 4.14062H375.488V3.04492H380.504V4.14062ZM387.311 4.14062H382.295V3.04492H387.311V4.14062ZM394.118 4.14062H389.102V3.04492H394.118V4.14062ZM399.009 4.1875V6.19727C399.009 6.48633 398.954 6.69336 398.845 6.81836C398.736 6.93945 398.591 7 398.411 7C398.232 7 398.085 6.93945 397.972 6.81836C397.862 6.69336 397.808 6.48633 397.808 6.19727V4.1875H396.091C395.802 4.1875 395.595 4.13281 395.47 4.02344C395.349 3.91016 395.288 3.76367 395.288 3.58398C395.288 3.4043 395.349 3.25977 395.47 3.15039C395.595 3.03711 395.802 2.98242 396.091 2.98633H397.808V0.982422C397.808 0.697266 397.862 0.492187 397.972 0.367188C398.085 0.242188 398.232 0.179688 398.411 0.179688C398.591 0.179688 398.736 0.242188 398.845 0.367188C398.958 0.488281 399.015 0.693359 399.015 0.982422L399.009 2.98633H400.726C401.015 2.98633 401.22 3.04102 401.341 3.15039C401.466 3.25977 401.529 3.4043 401.529 3.58398C401.529 3.76367 401.466 3.91016 401.341 4.02344C401.22 4.13281 401.015 4.1875 400.726 4.1875H399.009ZM4.20703 12.5723V19.7207C4.20703 20.1309 4.19727 20.375 4.17773 20.4531C4.14648 20.5703 4.07617 20.6699 3.9668 20.752C3.86133 20.834 3.74219 20.875 3.60938 20.875C3.47266 20.875 3.34961 20.834 3.24023 20.752C3.13477 20.6699 3.06641 20.5664 3.03516 20.4414C3.01562 20.3711 3.00586 20.1309 3.00586 19.7207V12.5723C3.00586 12.1621 3.01562 11.918 3.03516 11.8398C3.06641 11.7227 3.13477 11.623 3.24023 11.541C3.34961 11.459 3.47266 11.418 3.60938 11.418C3.74219 11.418 3.86133 11.459 3.9668 11.541C4.07617 11.623 4.14648 11.7246 4.17773 11.8457C4.19727 11.9238 4.20703 12.166 4.20703 12.5723ZM399.015 12.5723V19.7207C399.015 20.1309 399.005 20.375 398.986 20.4531C398.954 20.5703 398.884 20.6699 398.775 20.752C398.669 20.834 398.55 20.875 398.417 20.875C398.28 20.875 398.157 20.834 398.048 20.752C397.943 20.6699 397.874 20.5664 397.843 20.4414C397.823 20.3711 397.814 20.1309 397.814 19.7207V12.5723C397.814 12.1621 397.823 11.918 397.843 11.8398C397.874 11.7227 397.943 11.623 398.048 11.541C398.157 11.459 398.28 11.418 398.417 11.418C398.55 11.418 398.669 11.459 398.775 11.541C398.884 11.623 398.954 11.7246 398.986 11.8457C399.005 11.9238 399.015 12.166 399.015 12.5723ZM4.20703 24.5723V31.7207C4.20703 32.1309 4.19727 32.375 4.17773 32.4531C4.14648 32.5703 4.07617 32.6699 3.9668 32.752C3.86133 32.834 3.74219 32.875 3.60938 32.875C3.47266 32.875 3.34961 32.834 3.24023 32.752C3.13477 32.6699 3.06641 32.5664 3.03516 32.4414C3.01562 32.3711 3.00586 32.1309 3.00586 31.7207V24.5723C3.00586 24.1621 3.01562 23.918 3.03516 23.8398C3.06641 23.7227 3.13477 23.623 3.24023 23.541C3.34961 23.459 3.47266 23.418 3.60938 23.418C3.74219 23.418 3.86133 23.459 3.9668 23.541C4.07617 23.623 4.14648 23.7246 4.17773 23.8457C4.19727 23.9238 4.20703 24.166 4.20703 24.5723ZM399.015 24.5723V31.7207C399.015 32.1309 399.005 32.375 398.986 32.4531C398.954 32.5703 398.884 32.6699 398.775 32.752C398.669 32.834 398.55 32.875 398.417 32.875C398.28 32.875 398.157 32.834 398.048 32.752C397.943 32.6699 397.874 32.5664 397.843 32.4414C397.823 32.3711 397.814 32.1309 397.814 31.7207V24.5723C397.814 24.1621 397.823 23.918 397.843 23.8398C397.874 23.7227 397.943 23.623 398.048 23.541C398.157 23.459 398.28 23.418 398.417 23.418C398.55 23.418 398.669 23.459 398.775 23.541C398.884 23.623 398.954 23.7246 398.986 23.8457C399.005 23.9238 399.015 24.166 399.015 24.5723ZM4.20703 36.5723V43.7207C4.20703 44.1309 4.19727 44.375 4.17773 44.4531C4.14648 44.5703 4.07617 44.6699 3.9668 44.752C3.86133 44.834 3.74219 44.875 3.60938 44.875C3.47266 44.875 3.34961 44.834 3.24023 44.752C3.13477 44.6699 3.06641 44.5664 3.03516 44.4414C3.01562 44.3711 3.00586 44.1309 3.00586 43.7207V36.5723C3.00586 36.1621 3.01562 35.918 3.03516 35.8398C3.06641 35.7227 3.13477 35.623 3.24023 35.541C3.34961 35.459 3.47266 35.418 3.60938 35.418C3.74219 35.418 3.86133 35.459 3.9668 35.541C4.07617 35.623 4.14648 35.7246 4.17773 35.8457C4.19727 35.9238 4.20703 36.166 4.20703 36.5723ZM399.015 36.5723V43.7207C399.015 44.1309 399.005 44.375 398.986 44.4531C398.954 44.5703 398.884 44.6699 398.775 44.752C398.669 44.834 398.55 44.875 398.417 44.875C398.28 44.875 398.157 44.834 398.048 44.752C397.943 44.6699 397.874 44.5664 397.843 44.4414C397.823 44.3711 397.814 44.1309 397.814 43.7207V36.5723C397.814 36.1621 397.823 35.918 397.843 35.8398C397.874 35.7227 397.943 35.623 398.048 35.541C398.157 35.459 398.28 35.418 398.417 35.418C398.55 35.418 398.669 35.459 398.775 35.541C398.884 35.623 398.954 35.7246 398.986 35.8457C399.005 35.9238 399.015 36.166 399.015 36.5723ZM4.20703 48.5723V55.7207C4.20703 56.1309 4.19727 56.375 4.17773 56.4531C4.14648 56.5703 4.07617 56.6699 3.9668 56.752C3.86133 56.834 3.74219 56.875 3.60938 56.875C3.47266 56.875 3.34961 56.834 3.24023 56.752C3.13477 56.6699 3.06641 56.5664 3.03516 56.4414C3.01562 56.3711 3.00586 56.1309 3.00586 55.7207V48.5723C3.00586 48.1621 3.01562 47.918 3.03516 47.8398C3.06641 47.7227 3.13477 47.623 3.24023 47.541C3.34961 47.459 3.47266 47.418 3.60938 47.418C3.74219 47.418 3.86133 47.459 3.9668 47.541C4.07617 47.623 4.14648 47.7246 4.17773 47.8457C4.19727 47.9238 4.20703 48.166 4.20703 48.5723ZM399.015 48.5723V55.7207C399.015 56.1309 399.005 56.375 398.986 56.4531C398.954 56.5703 398.884 56.6699 398.775 56.752C398.669 56.834 398.55 56.875 398.417 56.875C398.28 56.875 398.157 56.834 398.048 56.752C397.943 56.6699 397.874 56.5664 397.843 56.4414C397.823 56.3711 397.814 56.1309 397.814 55.7207V48.5723C397.814 48.1621 397.823 47.918 397.843 47.8398C397.874 47.7227 397.943 47.623 398.048 47.541C398.157 47.459 398.28 47.418 398.417 47.418C398.55 47.418 398.669 47.459 398.775 47.541C398.884 47.623 398.954 47.7246 398.986 47.8457C399.005 47.9238 399.015 48.166 399.015 48.5723ZM4.20703 60.5723V67.7207C4.20703 68.1309 4.19727 68.375 4.17773 68.4531C4.14648 68.5703 4.07617 68.6699 3.9668 68.752C3.86133 68.834 3.74219 68.875 3.60938 68.875C3.47266 68.875 3.34961 68.834 3.24023 68.752C3.13477 68.6699 3.06641 68.5664 3.03516 68.4414C3.01562 68.3711 3.00586 68.1309 3.00586 67.7207V60.5723C3.00586 60.1621 3.01562 59.918 3.03516 59.8398C3.06641 59.7227 3.13477 59.623 3.24023 59.541C3.34961 59.459 3.47266 59.418 3.60938 59.418C3.74219 59.418 3.86133 59.459 3.9668 59.541C4.07617 59.623 4.14648 59.7246 4.17773 59.8457C4.19727 59.9238 4.20703 60.166 4.20703 60.5723ZM399.015 60.5723V67.7207C399.015 68.1309 399.005 68.375 398.986 68.4531C398.954 68.5703 398.884 68.6699 398.775 68.752C398.669 68.834 398.55 68.875 398.417 68.875C398.28 68.875 398.157 68.834 398.048 68.752C397.943 68.6699 397.874 68.5664 397.843 68.4414C397.823 68.3711 397.814 68.1309 397.814 67.7207V60.5723C397.814 60.1621 397.823 59.918 397.843 59.8398C397.874 59.7227 397.943 59.623 398.048 59.541C398.157 59.459 398.28 59.418 398.417 59.418C398.55 59.418 398.669 59.459 398.775 59.541C398.884 59.623 398.954 59.7246 398.986 59.8457C399.005 59.9238 399.015 60.166 399.015 60.5723ZM4.20703 72.5723V79.7207C4.20703 80.1309 4.19727 80.375 4.17773 80.4531C4.14648 80.5703 4.07617 80.6699 3.9668 80.752C3.86133 80.834 3.74219 80.875 3.60938 80.875C3.47266 80.875 3.34961 80.834 3.24023 80.752C3.13477 80.6699 3.06641 80.5664 3.03516 80.4414C3.01562 80.3711 3.00586 80.1309 3.00586 79.7207V72.5723C3.00586 72.1621 3.01562 71.918 3.03516 71.8398C3.06641 71.7227 3.13477 71.623 3.24023 71.541C3.34961 71.459 3.47266 71.418 3.60938 71.418C3.74219 71.418 3.86133 71.459 3.9668 71.541C4.07617 71.623 4.14648 71.7246 4.17773 71.8457C4.19727 71.9238 4.20703 72.166 4.20703 72.5723ZM399.015 72.5723V79.7207C399.015 80.1309 399.005 80.375 398.986 80.4531C398.954 80.5703 398.884 80.6699 398.775 80.752C398.669 80.834 398.55 80.875 398.417 80.875C398.28 80.875 398.157 80.834 398.048 80.752C397.943 80.6699 397.874 80.5664 397.843 80.4414C397.823 80.3711 397.814 80.1309 397.814 79.7207V72.5723C397.814 72.1621 397.823 71.918 397.843 71.8398C397.874 71.7227 397.943 71.623 398.048 71.541C398.157 71.459 398.28 71.418 398.417 71.418C398.55 71.418 398.669 71.459 398.775 71.541C398.884 71.623 398.954 71.7246 398.986 71.8457C399.005 71.9238 399.015 72.166 399.015 72.5723ZM4.20703 84.5723V91.7207C4.20703 92.1309 4.19727 92.375 4.17773 92.4531C4.14648 92.5703 4.07617 92.6699 3.9668 92.752C3.86133 92.834 3.74219 92.875 3.60938 92.875C3.47266 92.875 3.34961 92.834 3.24023 92.752C3.13477 92.6699 3.06641 92.5664 3.03516 92.4414C3.01562 92.3711 3.00586 92.1309 3.00586 91.7207V84.5723C3.00586 84.1621 3.01562 83.918 3.03516 83.8398C3.06641 83.7227 3.13477 83.623 3.24023 83.541C3.34961 83.459 3.47266 83.418 3.60938 83.418C3.74219 83.418 3.86133 83.459 3.9668 83.541C4.07617 83.623 4.14648 83.7246 4.17773 83.8457C4.19727 83.9238 4.20703 84.166 4.20703 84.5723ZM399.015 84.5723V91.7207C399.015 92.1309 399.005 92.375 398.986 92.4531C398.954 92.5703 398.884 92.6699 398.775 92.752C398.669 92.834 398.55 92.875 398.417 92.875C398.28 92.875 398.157 92.834 398.048 92.752C397.943 92.6699 397.874 92.5664 397.843 92.4414C397.823 92.3711 397.814 92.1309 397.814 91.7207V84.5723C397.814 84.1621 397.823 83.918 397.843 83.8398C397.874 83.7227 397.943 83.623 398.048 83.541C398.157 83.459 398.28 83.418 398.417 83.418C398.55 83.418 398.669 83.459 398.775 83.541C398.884 83.623 398.954 83.7246 398.986 83.8457C399.005 83.9238 399.015 84.166 399.015 84.5723ZM4.20703 96.5723V103.721C4.20703 104.131 4.19727 104.375 4.17773 104.453C4.14648 104.57 4.07617 104.67 3.9668 104.752C3.86133 104.834 3.74219 104.875 3.60938 104.875C3.47266 104.875 3.34961 104.834 3.24023 104.752C3.13477 104.67 3.06641 104.566 3.03516 104.441C3.01562 104.371 3.00586 104.131 3.00586 103.721V96.5723C3.00586 96.1621 3.01562 95.918 3.03516 95.8398C3.06641 95.7227 3.13477 95.623 3.24023 95.541C3.34961 95.459 3.47266 95.418 3.60938 95.418C3.74219 95.418 3.86133 95.459 3.9668 95.541C4.07617 95.623 4.14648 95.7246 4.17773 95.8457C4.19727 95.9238 4.20703 96.166 4.20703 96.5723ZM399.015 96.5723V103.721C399.015 104.131 399.005 104.375 398.986 104.453C398.954 104.57 398.884 104.67 398.775 104.752C398.669 104.834 398.55 104.875 398.417 104.875C398.28 104.875 398.157 104.834 398.048 104.752C397.943 104.67 397.874 104.566 397.843 104.441C397.823 104.371 397.814 104.131 397.814 103.721V96.5723C397.814 96.1621 397.823 95.918 397.843 95.8398C397.874 95.7227 397.943 95.623 398.048 95.541C398.157 95.459 398.28 95.418 398.417 95.418C398.55 95.418 398.669 95.459 398.775 95.541C398.884 95.623 398.954 95.7246 398.986 95.8457C399.005 95.9238 399.015 96.166 399.015 96.5723ZM4.20703 108.572V115.721C4.20703 116.131 4.19727 116.375 4.17773 116.453C4.14648 116.57 4.07617 116.67 3.9668 116.752C3.86133 116.834 3.74219 116.875 3.60938 116.875C3.47266 116.875 3.34961 116.834 3.24023 116.752C3.13477 116.67 3.06641 116.566 3.03516 116.441C3.01562 116.371 3.00586 116.131 3.00586 115.721V108.572C3.00586 108.162 3.01562 107.918 3.03516 107.84C3.06641 107.723 3.13477 107.623 3.24023 107.541C3.34961 107.459 3.47266 107.418 3.60938 107.418C3.74219 107.418 3.86133 107.459 3.9668 107.541C4.07617 107.623 4.14648 107.725 4.17773 107.846C4.19727 107.924 4.20703 108.166 4.20703 108.572ZM399.015 108.572V115.721C399.015 116.131 399.005 116.375 398.986 116.453C398.954 116.57 398.884 116.67 398.775 116.752C398.669 116.834 398.55 116.875 398.417 116.875C398.28 116.875 398.157 116.834 398.048 116.752C397.943 116.67 397.874 116.566 397.843 116.441C397.823 116.371 397.814 116.131 397.814 115.721V108.572C397.814 108.162 397.823 107.918 397.843 107.84C397.874 107.723 397.943 107.623 398.048 107.541C398.157 107.459 398.28 107.418 398.417 107.418C398.55 107.418 398.669 107.459 398.775 107.541C398.884 107.623 398.954 107.725 398.986 107.846C399.005 107.924 399.015 108.166 399.015 108.572ZM4.20703 120.572V127.721C4.20703 128.131 4.19727 128.375 4.17773 128.453C4.14648 128.57 4.07617 128.67 3.9668 128.752C3.86133 128.834 3.74219 128.875 3.60938 128.875C3.47266 128.875 3.34961 128.834 3.24023 128.752C3.13477 128.67 3.06641 128.566 3.03516 128.441C3.01562 128.371 3.00586 128.131 3.00586 127.721V120.572C3.00586 120.162 3.01562 119.918 3.03516 119.84C3.06641 119.723 3.13477 119.623 3.24023 119.541C3.34961 119.459 3.47266 119.418 3.60938 119.418C3.74219 119.418 3.86133 119.459 3.9668 119.541C4.07617 119.623 4.14648 119.725 4.17773 119.846C4.19727 119.924 4.20703 120.166 4.20703 120.572ZM399.015 120.572V127.721C399.015 128.131 399.005 128.375 398.986 128.453C398.954 128.57 398.884 128.67 398.775 128.752C398.669 128.834 398.55 128.875 398.417 128.875C398.28 128.875 398.157 128.834 398.048 128.752C397.943 128.67 397.874 128.566 397.843 128.441C397.823 128.371 397.814 128.131 397.814 127.721V120.572C397.814 120.162 397.823 119.918 397.843 119.84C397.874 119.723 397.943 119.623 398.048 119.541C398.157 119.459 398.28 119.418 398.417 119.418C398.55 119.418 398.669 119.459 398.775 119.541C398.884 119.623 398.954 119.725 398.986 119.846C399.005 119.924 399.015 120.166 399.015 120.572ZM4.20703 132.572V139.721C4.20703 140.131 4.19727 140.375 4.17773 140.453C4.14648 140.57 4.07617 140.67 3.9668 140.752C3.86133 140.834 3.74219 140.875 3.60938 140.875C3.47266 140.875 3.34961 140.834 3.24023 140.752C3.13477 140.67 3.06641 140.566 3.03516 140.441C3.01562 140.371 3.00586 140.131 3.00586 139.721V132.572C3.00586 132.162 3.01562 131.918 3.03516 131.84C3.06641 131.723 3.13477 131.623 3.24023 131.541C3.34961 131.459 3.47266 131.418 3.60938 131.418C3.74219 131.418 3.86133 131.459 3.9668 131.541C4.07617 131.623 4.14648 131.725 4.17773 131.846C4.19727 131.924 4.20703 132.166 4.20703 132.572ZM399.015 132.572V139.721C399.015 140.131 399.005 140.375 398.986 140.453C398.954 140.57 398.884 140.67 398.775 140.752C398.669 140.834 398.55 140.875 398.417 140.875C398.28 140.875 398.157 140.834 398.048 140.752C397.943 140.67 397.874 140.566 397.843 140.441C397.823 140.371 397.814 140.131 397.814 139.721V132.572C397.814 132.162 397.823 131.918 397.843 131.84C397.874 131.723 397.943 131.623 398.048 131.541C398.157 131.459 398.28 131.418 398.417 131.418C398.55 131.418 398.669 131.459 398.775 131.541C398.884 131.623 398.954 131.725 398.986 131.846C399.005 131.924 399.015 132.166 399.015 132.572ZM4.20703 144.572V151.721C4.20703 152.131 4.19727 152.375 4.17773 152.453C4.14648 152.57 4.07617 152.67 3.9668 152.752C3.86133 152.834 3.74219 152.875 3.60938 152.875C3.47266 152.875 3.34961 152.834 3.24023 152.752C3.13477 152.67 3.06641 152.566 3.03516 152.441C3.01562 152.371 3.00586 152.131 3.00586 151.721V144.572C3.00586 144.162 3.01562 143.918 3.03516 143.84C3.06641 143.723 3.13477 143.623 3.24023 143.541C3.34961 143.459 3.47266 143.418 3.60938 143.418C3.74219 143.418 3.86133 143.459 3.9668 143.541C4.07617 143.623 4.14648 143.725 4.17773 143.846C4.19727 143.924 4.20703 144.166 4.20703 144.572ZM399.015 144.572V151.721C399.015 152.131 399.005 152.375 398.986 152.453C398.954 152.57 398.884 152.67 398.775 152.752C398.669 152.834 398.55 152.875 398.417 152.875C398.28 152.875 398.157 152.834 398.048 152.752C397.943 152.67 397.874 152.566 397.843 152.441C397.823 152.371 397.814 152.131 397.814 151.721V144.572C397.814 144.162 397.823 143.918 397.843 143.84C397.874 143.723 397.943 143.623 398.048 143.541C398.157 143.459 398.28 143.418 398.417 143.418C398.55 143.418 398.669 143.459 398.775 143.541C398.884 143.623 398.954 143.725 398.986 143.846C399.005 143.924 399.015 144.166 399.015 144.572ZM4.20703 156.572V163.721C4.20703 164.131 4.19727 164.375 4.17773 164.453C4.14648 164.57 4.07617 164.67 3.9668 164.752C3.86133 164.834 3.74219 164.875 3.60938 164.875C3.47266 164.875 3.34961 164.834 3.24023 164.752C3.13477 164.67 3.06641 164.566 3.03516 164.441C3.01562 164.371 3.00586 164.131 3.00586 163.721V156.572C3.00586 156.162 3.01562 155.918 3.03516 155.84C3.06641 155.723 3.13477 155.623 3.24023 155.541C3.34961 155.459 3.47266 155.418 3.60938 155.418C3.74219 155.418 3.86133 155.459 3.9668 155.541C4.07617 155.623 4.14648 155.725 4.17773 155.846C4.19727 155.924 4.20703 156.166 4.20703 156.572ZM399.015 156.572V163.721C399.015 164.131 399.005 164.375 398.986 164.453C398.954 164.57 398.884 164.67 398.775 164.752C398.669 164.834 398.55 164.875 398.417 164.875C398.28 164.875 398.157 164.834 398.048 164.752C397.943 164.67 397.874 164.566 397.843 164.441C397.823 164.371 397.814 164.131 397.814 163.721V156.572C397.814 156.162 397.823 155.918 397.843 155.84C397.874 155.723 397.943 155.623 398.048 155.541C398.157 155.459 398.28 155.418 398.417 155.418C398.55 155.418 398.669 155.459 398.775 155.541C398.884 155.623 398.954 155.725 398.986 155.846C399.005 155.924 399.015 156.166 399.015 156.572ZM4.20703 168.572V175.721C4.20703 176.131 4.19727 176.375 4.17773 176.453C4.14648 176.57 4.07617 176.67 3.9668 176.752C3.86133 176.834 3.74219 176.875 3.60938 176.875C3.47266 176.875 3.34961 176.834 3.24023 176.752C3.13477 176.67 3.06641 176.566 3.03516 176.441C3.01562 176.371 3.00586 176.131 3.00586 175.721V168.572C3.00586 168.162 3.01562 167.918 3.03516 167.84C3.06641 167.723 3.13477 167.623 3.24023 167.541C3.34961 167.459 3.47266 167.418 3.60938 167.418C3.74219 167.418 3.86133 167.459 3.9668 167.541C4.07617 167.623 4.14648 167.725 4.17773 167.846C4.19727 167.924 4.20703 168.166 4.20703 168.572ZM399.015 168.572V175.721C399.015 176.131 399.005 176.375 398.986 176.453C398.954 176.57 398.884 176.67 398.775 176.752C398.669 176.834 398.55 176.875 398.417 176.875C398.28 176.875 398.157 176.834 398.048 176.752C397.943 176.67 397.874 176.566 397.843 176.441C397.823 176.371 397.814 176.131 397.814 175.721V168.572C397.814 168.162 397.823 167.918 397.843 167.84C397.874 167.723 397.943 167.623 398.048 167.541C398.157 167.459 398.28 167.418 398.417 167.418C398.55 167.418 398.669 167.459 398.775 167.541C398.884 167.623 398.954 167.725 398.986 167.846C399.005 167.924 399.015 168.166 399.015 168.572ZM4.20703 180.572V187.721C4.20703 188.131 4.19727 188.375 4.17773 188.453C4.14648 188.57 4.07617 188.67 3.9668 188.752C3.86133 188.834 3.74219 188.875 3.60938 188.875C3.47266 188.875 3.34961 188.834 3.24023 188.752C3.13477 188.67 3.06641 188.566 3.03516 188.441C3.01562 188.371 3.00586 188.131 3.00586 187.721V180.572C3.00586 180.162 3.01562 179.918 3.03516 179.84C3.06641 179.723 3.13477 179.623 3.24023 179.541C3.34961 179.459 3.47266 179.418 3.60938 179.418C3.74219 179.418 3.86133 179.459 3.9668 179.541C4.07617 179.623 4.14648 179.725 4.17773 179.846C4.19727 179.924 4.20703 180.166 4.20703 180.572ZM399.015 180.572V187.721C399.015 188.131 399.005 188.375 398.986 188.453C398.954 188.57 398.884 188.67 398.775 188.752C398.669 188.834 398.55 188.875 398.417 188.875C398.28 188.875 398.157 188.834 398.048 188.752C397.943 188.67 397.874 188.566 397.843 188.441C397.823 188.371 397.814 188.131 397.814 187.721V180.572C397.814 180.162 397.823 179.918 397.843 179.84C397.874 179.723 397.943 179.623 398.048 179.541C398.157 179.459 398.28 179.418 398.417 179.418C398.55 179.418 398.669 179.459 398.775 179.541C398.884 179.623 398.954 179.725 398.986 179.846C399.005 179.924 399.015 180.166 399.015 180.572ZM4.20703 192.572V199.721C4.20703 200.131 4.19727 200.375 4.17773 200.453C4.14648 200.57 4.07617 200.67 3.9668 200.752C3.86133 200.834 3.74219 200.875 3.60938 200.875C3.47266 200.875 3.34961 200.834 3.24023 200.752C3.13477 200.67 3.06641 200.566 3.03516 200.441C3.01562 200.371 3.00586 200.131 3.00586 199.721V192.572C3.00586 192.162 3.01562 191.918 3.03516 191.84C3.06641 191.723 3.13477 191.623 3.24023 191.541C3.34961 191.459 3.47266 191.418 3.60938 191.418C3.74219 191.418 3.86133 191.459 3.9668 191.541C4.07617 191.623 4.14648 191.725 4.17773 191.846C4.19727 191.924 4.20703 192.166 4.20703 192.572ZM399.015 192.572V199.721C399.015 200.131 399.005 200.375 398.986 200.453C398.954 200.57 398.884 200.67 398.775 200.752C398.669 200.834 398.55 200.875 398.417 200.875C398.28 200.875 398.157 200.834 398.048 200.752C397.943 200.67 397.874 200.566 397.843 200.441C397.823 200.371 397.814 200.131 397.814 199.721V192.572C397.814 192.162 397.823 191.918 397.843 191.84C397.874 191.723 397.943 191.623 398.048 191.541C398.157 191.459 398.28 191.418 398.417 191.418C398.55 191.418 398.669 191.459 398.775 191.541C398.884 191.623 398.954 191.725 398.986 191.846C399.005 191.924 399.015 192.166 399.015 192.572ZM4.20703 204.572V211.721C4.20703 212.131 4.19727 212.375 4.17773 212.453C4.14648 212.57 4.07617 212.67 3.9668 212.752C3.86133 212.834 3.74219 212.875 3.60938 212.875C3.47266 212.875 3.34961 212.834 3.24023 212.752C3.13477 212.67 3.06641 212.566 3.03516 212.441C3.01562 212.371 3.00586 212.131 3.00586 211.721V204.572C3.00586 204.162 3.01562 203.918 3.03516 203.84C3.06641 203.723 3.13477 203.623 3.24023 203.541C3.34961 203.459 3.47266 203.418 3.60938 203.418C3.74219 203.418 3.86133 203.459 3.9668 203.541C4.07617 203.623 4.14648 203.725 4.17773 203.846C4.19727 203.924 4.20703 204.166 4.20703 204.572ZM399.015 204.572V211.721C399.015 212.131 399.005 212.375 398.986 212.453C398.954 212.57 398.884 212.67 398.775 212.752C398.669 212.834 398.55 212.875 398.417 212.875C398.28 212.875 398.157 212.834 398.048 212.752C397.943 212.67 397.874 212.566 397.843 212.441C397.823 212.371 397.814 212.131 397.814 211.721V204.572C397.814 204.162 397.823 203.918 397.843 203.84C397.874 203.723 397.943 203.623 398.048 203.541C398.157 203.459 398.28 203.418 398.417 203.418C398.55 203.418 398.669 203.459 398.775 203.541C398.884 203.623 398.954 203.725 398.986 203.846C399.005 203.924 399.015 204.166 399.015 204.572ZM4.20703 216.572V223.721C4.20703 224.131 4.19727 224.375 4.17773 224.453C4.14648 224.57 4.07617 224.67 3.9668 224.752C3.86133 224.834 3.74219 224.875 3.60938 224.875C3.47266 224.875 3.34961 224.834 3.24023 224.752C3.13477 224.67 3.06641 224.566 3.03516 224.441C3.01562 224.371 3.00586 224.131 3.00586 223.721V216.572C3.00586 216.162 3.01562 215.918 3.03516 215.84C3.06641 215.723 3.13477 215.623 3.24023 215.541C3.34961 215.459 3.47266 215.418 3.60938 215.418C3.74219 215.418 3.86133 215.459 3.9668 215.541C4.07617 215.623 4.14648 215.725 4.17773 215.846C4.19727 215.924 4.20703 216.166 4.20703 216.572ZM399.015 216.572V223.721C399.015 224.131 399.005 224.375 398.986 224.453C398.954 224.57 398.884 224.67 398.775 224.752C398.669 224.834 398.55 224.875 398.417 224.875C398.28 224.875 398.157 224.834 398.048 224.752C397.943 224.67 397.874 224.566 397.843 224.441C397.823 224.371 397.814 224.131 397.814 223.721V216.572C397.814 216.162 397.823 215.918 397.843 215.84C397.874 215.723 397.943 215.623 398.048 215.541C398.157 215.459 398.28 215.418 398.417 215.418C398.55 215.418 398.669 215.459 398.775 215.541C398.884 215.623 398.954 215.725 398.986 215.846C399.005 215.924 399.015 216.166 399.015 216.572ZM4.20703 228.572V235.721C4.20703 236.131 4.19727 236.375 4.17773 236.453C4.14648 236.57 4.07617 236.67 3.9668 236.752C3.86133 236.834 3.74219 236.875 3.60938 236.875C3.47266 236.875 3.34961 236.834 3.24023 236.752C3.13477 236.67 3.06641 236.566 3.03516 236.441C3.01562 236.371 3.00586 236.131 3.00586 235.721V228.572C3.00586 228.162 3.01562 227.918 3.03516 227.84C3.06641 227.723 3.13477 227.623 3.24023 227.541C3.34961 227.459 3.47266 227.418 3.60938 227.418C3.74219 227.418 3.86133 227.459 3.9668 227.541C4.07617 227.623 4.14648 227.725 4.17773 227.846C4.19727 227.924 4.20703 228.166 4.20703 228.572ZM399.015 228.572V235.721C399.015 236.131 399.005 236.375 398.986 236.453C398.954 236.57 398.884 236.67 398.775 236.752C398.669 236.834 398.55 236.875 398.417 236.875C398.28 236.875 398.157 236.834 398.048 236.752C397.943 236.67 397.874 236.566 397.843 236.441C397.823 236.371 397.814 236.131 397.814 235.721V228.572C397.814 228.162 397.823 227.918 397.843 227.84C397.874 227.723 397.943 227.623 398.048 227.541C398.157 227.459 398.28 227.418 398.417 227.418C398.55 227.418 398.669 227.459 398.775 227.541C398.884 227.623 398.954 227.725 398.986 227.846C399.005 227.924 399.015 228.166 399.015 228.572ZM4.20703 240.572V247.721C4.20703 248.131 4.19727 248.375 4.17773 248.453C4.14648 248.57 4.07617 248.67 3.9668 248.752C3.86133 248.834 3.74219 248.875 3.60938 248.875C3.47266 248.875 3.34961 248.834 3.24023 248.752C3.13477 248.67 3.06641 248.566 3.03516 248.441C3.01562 248.371 3.00586 248.131 3.00586 247.721V240.572C3.00586 240.162 3.01562 239.918 3.03516 239.84C3.06641 239.723 3.13477 239.623 3.24023 239.541C3.34961 239.459 3.47266 239.418 3.60938 239.418C3.74219 239.418 3.86133 239.459 3.9668 239.541C4.07617 239.623 4.14648 239.725 4.17773 239.846C4.19727 239.924 4.20703 240.166 4.20703 240.572ZM399.015 240.572V247.721C399.015 248.131 399.005 248.375 398.986 248.453C398.954 248.57 398.884 248.67 398.775 248.752C398.669 248.834 398.55 248.875 398.417 248.875C398.28 248.875 398.157 248.834 398.048 248.752C397.943 248.67 397.874 248.566 397.843 248.441C397.823 248.371 397.814 248.131 397.814 247.721V240.572C397.814 240.162 397.823 239.918 397.843 239.84C397.874 239.723 397.943 239.623 398.048 239.541C398.157 239.459 398.28 239.418 398.417 239.418C398.55 239.418 398.669 239.459 398.775 239.541C398.884 239.623 398.954 239.725 398.986 239.846C399.005 239.924 399.015 240.166 399.015 240.572ZM4.20703 252.572V259.721C4.20703 260.131 4.19727 260.375 4.17773 260.453C4.14648 260.57 4.07617 260.67 3.9668 260.752C3.86133 260.834 3.74219 260.875 3.60938 260.875C3.47266 260.875 3.34961 260.834 3.24023 260.752C3.13477 260.67 3.06641 260.566 3.03516 260.441C3.01562 260.371 3.00586 260.131 3.00586 259.721V252.572C3.00586 252.162 3.01562 251.918 3.03516 251.84C3.06641 251.723 3.13477 251.623 3.24023 251.541C3.34961 251.459 3.47266 251.418 3.60938 251.418C3.74219 251.418 3.86133 251.459 3.9668 251.541C4.07617 251.623 4.14648 251.725 4.17773 251.846C4.19727 251.924 4.20703 252.166 4.20703 252.572ZM399.015 252.572V259.721C399.015 260.131 399.005 260.375 398.986 260.453C398.954 260.57 398.884 260.67 398.775 260.752C398.669 260.834 398.55 260.875 398.417 260.875C398.28 260.875 398.157 260.834 398.048 260.752C397.943 260.67 397.874 260.566 397.843 260.441C397.823 260.371 397.814 260.131 397.814 259.721V252.572C397.814 252.162 397.823 251.918 397.843 251.84C397.874 251.723 397.943 251.623 398.048 251.541C398.157 251.459 398.28 251.418 398.417 251.418C398.55 251.418 398.669 251.459 398.775 251.541C398.884 251.623 398.954 251.725 398.986 251.846C399.005 251.924 399.015 252.166 399.015 252.572ZM4.20703 264.572V271.721C4.20703 272.131 4.19727 272.375 4.17773 272.453C4.14648 272.57 4.07617 272.67 3.9668 272.752C3.86133 272.834 3.74219 272.875 3.60938 272.875C3.47266 272.875 3.34961 272.834 3.24023 272.752C3.13477 272.67 3.06641 272.566 3.03516 272.441C3.01562 272.371 3.00586 272.131 3.00586 271.721V264.572C3.00586 264.162 3.01562 263.918 3.03516 263.84C3.06641 263.723 3.13477 263.623 3.24023 263.541C3.34961 263.459 3.47266 263.418 3.60938 263.418C3.74219 263.418 3.86133 263.459 3.9668 263.541C4.07617 263.623 4.14648 263.725 4.17773 263.846C4.19727 263.924 4.20703 264.166 4.20703 264.572ZM399.015 264.572V271.721C399.015 272.131 399.005 272.375 398.986 272.453C398.954 272.57 398.884 272.67 398.775 272.752C398.669 272.834 398.55 272.875 398.417 272.875C398.28 272.875 398.157 272.834 398.048 272.752C397.943 272.67 397.874 272.566 397.843 272.441C397.823 272.371 397.814 272.131 397.814 271.721V264.572C397.814 264.162 397.823 263.918 397.843 263.84C397.874 263.723 397.943 263.623 398.048 263.541C398.157 263.459 398.28 263.418 398.417 263.418C398.55 263.418 398.669 263.459 398.775 263.541C398.884 263.623 398.954 263.725 398.986 263.846C399.005 263.924 399.015 264.166 399.015 264.572ZM4.20703 276.572V283.721C4.20703 284.131 4.19727 284.375 4.17773 284.453C4.14648 284.57 4.07617 284.67 3.9668 284.752C3.86133 284.834 3.74219 284.875 3.60938 284.875C3.47266 284.875 3.34961 284.834 3.24023 284.752C3.13477 284.67 3.06641 284.566 3.03516 284.441C3.01562 284.371 3.00586 284.131 3.00586 283.721V276.572C3.00586 276.162 3.01562 275.918 3.03516 275.84C3.06641 275.723 3.13477 275.623 3.24023 275.541C3.34961 275.459 3.47266 275.418 3.60938 275.418C3.74219 275.418 3.86133 275.459 3.9668 275.541C4.07617 275.623 4.14648 275.725 4.17773 275.846C4.19727 275.924 4.20703 276.166 4.20703 276.572ZM399.015 276.572V283.721C399.015 284.131 399.005 284.375 398.986 284.453C398.954 284.57 398.884 284.67 398.775 284.752C398.669 284.834 398.55 284.875 398.417 284.875C398.28 284.875 398.157 284.834 398.048 284.752C397.943 284.67 397.874 284.566 397.843 284.441C397.823 284.371 397.814 284.131 397.814 283.721V276.572C397.814 276.162 397.823 275.918 397.843 275.84C397.874 275.723 397.943 275.623 398.048 275.541C398.157 275.459 398.28 275.418 398.417 275.418C398.55 275.418 398.669 275.459 398.775 275.541C398.884 275.623 398.954 275.725 398.986 275.846C399.005 275.924 399.015 276.166 399.015 276.572ZM4.20703 288.572V295.721C4.20703 296.131 4.19727 296.375 4.17773 296.453C4.14648 296.57 4.07617 296.67 3.9668 296.752C3.86133 296.834 3.74219 296.875 3.60938 296.875C3.47266 296.875 3.34961 296.834 3.24023 296.752C3.13477 296.67 3.06641 296.566 3.03516 296.441C3.01562 296.371 3.00586 296.131 3.00586 295.721V288.572C3.00586 288.162 3.01562 287.918 3.03516 287.84C3.06641 287.723 3.13477 287.623 3.24023 287.541C3.34961 287.459 3.47266 287.418 3.60938 287.418C3.74219 287.418 3.86133 287.459 3.9668 287.541C4.07617 287.623 4.14648 287.725 4.17773 287.846C4.19727 287.924 4.20703 288.166 4.20703 288.572ZM399.015 288.572V295.721C399.015 296.131 399.005 296.375 398.986 296.453C398.954 296.57 398.884 296.67 398.775 296.752C398.669 296.834 398.55 296.875 398.417 296.875C398.28 296.875 398.157 296.834 398.048 296.752C397.943 296.67 397.874 296.566 397.843 296.441C397.823 296.371 397.814 296.131 397.814 295.721V288.572C397.814 288.162 397.823 287.918 397.843 287.84C397.874 287.723 397.943 287.623 398.048 287.541C398.157 287.459 398.28 287.418 398.417 287.418C398.55 287.418 398.669 287.459 398.775 287.541C398.884 287.623 398.954 287.725 398.986 287.846C399.005 287.924 399.015 288.166 399.015 288.572ZM4.20703 300.572V307.721C4.20703 308.131 4.19727 308.375 4.17773 308.453C4.14648 308.57 4.07617 308.67 3.9668 308.752C3.86133 308.834 3.74219 308.875 3.60938 308.875C3.47266 308.875 3.34961 308.834 3.24023 308.752C3.13477 308.67 3.06641 308.566 3.03516 308.441C3.01562 308.371 3.00586 308.131 3.00586 307.721V300.572C3.00586 300.162 3.01562 299.918 3.03516 299.84C3.06641 299.723 3.13477 299.623 3.24023 299.541C3.34961 299.459 3.47266 299.418 3.60938 299.418C3.74219 299.418 3.86133 299.459 3.9668 299.541C4.07617 299.623 4.14648 299.725 4.17773 299.846C4.19727 299.924 4.20703 300.166 4.20703 300.572ZM399.015 300.572V307.721C399.015 308.131 399.005 308.375 398.986 308.453C398.954 308.57 398.884 308.67 398.775 308.752C398.669 308.834 398.55 308.875 398.417 308.875C398.28 308.875 398.157 308.834 398.048 308.752C397.943 308.67 397.874 308.566 397.843 308.441C397.823 308.371 397.814 308.131 397.814 307.721V300.572C397.814 300.162 397.823 299.918 397.843 299.84C397.874 299.723 397.943 299.623 398.048 299.541C398.157 299.459 398.28 299.418 398.417 299.418C398.55 299.418 398.669 299.459 398.775 299.541C398.884 299.623 398.954 299.725 398.986 299.846C399.005 299.924 399.015 300.166 399.015 300.572ZM4.20703 312.572V319.721C4.20703 320.131 4.19727 320.375 4.17773 320.453C4.14648 320.57 4.07617 320.67 3.9668 320.752C3.86133 320.834 3.74219 320.875 3.60938 320.875C3.47266 320.875 3.34961 320.834 3.24023 320.752C3.13477 320.67 3.06641 320.566 3.03516 320.441C3.01562 320.371 3.00586 320.131 3.00586 319.721V312.572C3.00586 312.162 3.01562 311.918 3.03516 311.84C3.06641 311.723 3.13477 311.623 3.24023 311.541C3.34961 311.459 3.47266 311.418 3.60938 311.418C3.74219 311.418 3.86133 311.459 3.9668 311.541C4.07617 311.623 4.14648 311.725 4.17773 311.846C4.19727 311.924 4.20703 312.166 4.20703 312.572ZM399.015 312.572V319.721C399.015 320.131 399.005 320.375 398.986 320.453C398.954 320.57 398.884 320.67 398.775 320.752C398.669 320.834 398.55 320.875 398.417 320.875C398.28 320.875 398.157 320.834 398.048 320.752C397.943 320.67 397.874 320.566 397.843 320.441C397.823 320.371 397.814 320.131 397.814 319.721V312.572C397.814 312.162 397.823 311.918 397.843 311.84C397.874 311.723 397.943 311.623 398.048 311.541C398.157 311.459 398.28 311.418 398.417 311.418C398.55 311.418 398.669 311.459 398.775 311.541C398.884 311.623 398.954 311.725 398.986 311.846C399.005 311.924 399.015 312.166 399.015 312.572ZM4.20703 324.572V331.721C4.20703 332.131 4.19727 332.375 4.17773 332.453C4.14648 332.57 4.07617 332.67 3.9668 332.752C3.86133 332.834 3.74219 332.875 3.60938 332.875C3.47266 332.875 3.34961 332.834 3.24023 332.752C3.13477 332.67 3.06641 332.566 3.03516 332.441C3.01562 332.371 3.00586 332.131 3.00586 331.721V324.572C3.00586 324.162 3.01562 323.918 3.03516 323.84C3.06641 323.723 3.13477 323.623 3.24023 323.541C3.34961 323.459 3.47266 323.418 3.60938 323.418C3.74219 323.418 3.86133 323.459 3.9668 323.541C4.07617 323.623 4.14648 323.725 4.17773 323.846C4.19727 323.924 4.20703 324.166 4.20703 324.572ZM399.015 324.572V331.721C399.015 332.131 399.005 332.375 398.986 332.453C398.954 332.57 398.884 332.67 398.775 332.752C398.669 332.834 398.55 332.875 398.417 332.875C398.28 332.875 398.157 332.834 398.048 332.752C397.943 332.67 397.874 332.566 397.843 332.441C397.823 332.371 397.814 332.131 397.814 331.721V324.572C397.814 324.162 397.823 323.918 397.843 323.84C397.874 323.723 397.943 323.623 398.048 323.541C398.157 323.459 398.28 323.418 398.417 323.418C398.55 323.418 398.669 323.459 398.775 323.541C398.884 323.623 398.954 323.725 398.986 323.846C399.005 323.924 399.015 324.166 399.015 324.572ZM4.20703 336.572V343.721C4.20703 344.131 4.19727 344.375 4.17773 344.453C4.14648 344.57 4.07617 344.67 3.9668 344.752C3.86133 344.834 3.74219 344.875 3.60938 344.875C3.47266 344.875 3.34961 344.834 3.24023 344.752C3.13477 344.67 3.06641 344.566 3.03516 344.441C3.01562 344.371 3.00586 344.131 3.00586 343.721V336.572C3.00586 336.162 3.01562 335.918 3.03516 335.84C3.06641 335.723 3.13477 335.623 3.24023 335.541C3.34961 335.459 3.47266 335.418 3.60938 335.418C3.74219 335.418 3.86133 335.459 3.9668 335.541C4.07617 335.623 4.14648 335.725 4.17773 335.846C4.19727 335.924 4.20703 336.166 4.20703 336.572ZM399.015 336.572V343.721C399.015 344.131 399.005 344.375 398.986 344.453C398.954 344.57 398.884 344.67 398.775 344.752C398.669 344.834 398.55 344.875 398.417 344.875C398.28 344.875 398.157 344.834 398.048 344.752C397.943 344.67 397.874 344.566 397.843 344.441C397.823 344.371 397.814 344.131 397.814 343.721V336.572C397.814 336.162 397.823 335.918 397.843 335.84C397.874 335.723 397.943 335.623 398.048 335.541C398.157 335.459 398.28 335.418 398.417 335.418C398.55 335.418 398.669 335.459 398.775 335.541C398.884 335.623 398.954 335.725 398.986 335.846C399.005 335.924 399.015 336.166 399.015 336.572ZM4.20703 348.572V355.721C4.20703 356.131 4.19727 356.375 4.17773 356.453C4.14648 356.57 4.07617 356.67 3.9668 356.752C3.86133 356.834 3.74219 356.875 3.60938 356.875C3.47266 356.875 3.34961 356.834 3.24023 356.752C3.13477 356.67 3.06641 356.566 3.03516 356.441C3.01562 356.371 3.00586 356.131 3.00586 355.721V348.572C3.00586 348.162 3.01562 347.918 3.03516 347.84C3.06641 347.723 3.13477 347.623 3.24023 347.541C3.34961 347.459 3.47266 347.418 3.60938 347.418C3.74219 347.418 3.86133 347.459 3.9668 347.541C4.07617 347.623 4.14648 347.725 4.17773 347.846C4.19727 347.924 4.20703 348.166 4.20703 348.572ZM399.015 348.572V355.721C399.015 356.131 399.005 356.375 398.986 356.453C398.954 356.57 398.884 356.67 398.775 356.752C398.669 356.834 398.55 356.875 398.417 356.875C398.28 356.875 398.157 356.834 398.048 356.752C397.943 356.67 397.874 356.566 397.843 356.441C397.823 356.371 397.814 356.131 397.814 355.721V348.572C397.814 348.162 397.823 347.918 397.843 347.84C397.874 347.723 397.943 347.623 398.048 347.541C398.157 347.459 398.28 347.418 398.417 347.418C398.55 347.418 398.669 347.459 398.775 347.541C398.884 347.623 398.954 347.725 398.986 347.846C399.005 347.924 399.015 348.166 399.015 348.572ZM4.20703 360.572V367.721C4.20703 368.131 4.19727 368.375 4.17773 368.453C4.14648 368.57 4.07617 368.67 3.9668 368.752C3.86133 368.834 3.74219 368.875 3.60938 368.875C3.47266 368.875 3.34961 368.834 3.24023 368.752C3.13477 368.67 3.06641 368.566 3.03516 368.441C3.01562 368.371 3.00586 368.131 3.00586 367.721V360.572C3.00586 360.162 3.01562 359.918 3.03516 359.84C3.06641 359.723 3.13477 359.623 3.24023 359.541C3.34961 359.459 3.47266 359.418 3.60938 359.418C3.74219 359.418 3.86133 359.459 3.9668 359.541C4.07617 359.623 4.14648 359.725 4.17773 359.846C4.19727 359.924 4.20703 360.166 4.20703 360.572ZM399.015 360.572V367.721C399.015 368.131 399.005 368.375 398.986 368.453C398.954 368.57 398.884 368.67 398.775 368.752C398.669 368.834 398.55 368.875 398.417 368.875C398.28 368.875 398.157 368.834 398.048 368.752C397.943 368.67 397.874 368.566 397.843 368.441C397.823 368.371 397.814 368.131 397.814 367.721V360.572C397.814 360.162 397.823 359.918 397.843 359.84C397.874 359.723 397.943 359.623 398.048 359.541C398.157 359.459 398.28 359.418 398.417 359.418C398.55 359.418 398.669 359.459 398.775 359.541C398.884 359.623 398.954 359.725 398.986 359.846C399.005 359.924 399.015 360.166 399.015 360.572ZM4.20703 372.572V379.721C4.20703 380.131 4.19727 380.375 4.17773 380.453C4.14648 380.57 4.07617 380.67 3.9668 380.752C3.86133 380.834 3.74219 380.875 3.60938 380.875C3.47266 380.875 3.34961 380.834 3.24023 380.752C3.13477 380.67 3.06641 380.566 3.03516 380.441C3.01562 380.371 3.00586 380.131 3.00586 379.721V372.572C3.00586 372.162 3.01562 371.918 3.03516 371.84C3.06641 371.723 3.13477 371.623 3.24023 371.541C3.34961 371.459 3.47266 371.418 3.60938 371.418C3.74219 371.418 3.86133 371.459 3.9668 371.541C4.07617 371.623 4.14648 371.725 4.17773 371.846C4.19727 371.924 4.20703 372.166 4.20703 372.572ZM399.015 372.572V379.721C399.015 380.131 399.005 380.375 398.986 380.453C398.954 380.57 398.884 380.67 398.775 380.752C398.669 380.834 398.55 380.875 398.417 380.875C398.28 380.875 398.157 380.834 398.048 380.752C397.943 380.67 397.874 380.566 397.843 380.441C397.823 380.371 397.814 380.131 397.814 379.721V372.572C397.814 372.162 397.823 371.918 397.843 371.84C397.874 371.723 397.943 371.623 398.048 371.541C398.157 371.459 398.28 371.418 398.417 371.418C398.55 371.418 398.669 371.459 398.775 371.541C398.884 371.623 398.954 371.725 398.986 371.846C399.005 371.924 399.015 372.166 399.015 372.572ZM4.20703 384.572V391.721C4.20703 392.131 4.19727 392.375 4.17773 392.453C4.14648 392.57 4.07617 392.67 3.9668 392.752C3.86133 392.834 3.74219 392.875 3.60938 392.875C3.47266 392.875 3.34961 392.834 3.24023 392.752C3.13477 392.67 3.06641 392.566 3.03516 392.441C3.01562 392.371 3.00586 392.131 3.00586 391.721V384.572C3.00586 384.162 3.01562 383.918 3.03516 383.84C3.06641 383.723 3.13477 383.623 3.24023 383.541C3.34961 383.459 3.47266 383.418 3.60938 383.418C3.74219 383.418 3.86133 383.459 3.9668 383.541C4.07617 383.623 4.14648 383.725 4.17773 383.846C4.19727 383.924 4.20703 384.166 4.20703 384.572ZM399.015 384.572V391.721C399.015 392.131 399.005 392.375 398.986 392.453C398.954 392.57 398.884 392.67 398.775 392.752C398.669 392.834 398.55 392.875 398.417 392.875C398.28 392.875 398.157 392.834 398.048 392.752C397.943 392.67 397.874 392.566 397.843 392.441C397.823 392.371 397.814 392.131 397.814 391.721V384.572C397.814 384.162 397.823 383.918 397.843 383.84C397.874 383.723 397.943 383.623 398.048 383.541C398.157 383.459 398.28 383.418 398.417 383.418C398.55 383.418 398.669 383.459 398.775 383.541C398.884 383.623 398.954 383.725 398.986 383.846C399.005 383.924 399.015 384.166 399.015 384.572ZM4.20117 400.188V402.197C4.20117 402.486 4.14648 402.693 4.03711 402.818C3.92773 402.939 3.7832 403 3.60352 403C3.42383 403 3.27734 402.939 3.16406 402.818C3.05469 402.693 3 402.486 3 402.197V400.188H1.2832C0.994141 400.188 0.787109 400.133 0.662109 400.023C0.541016 399.91 0.480469 399.764 0.480469 399.584C0.480469 399.404 0.541016 399.26 0.662109 399.15C0.787109 399.037 0.994141 398.982 1.2832 398.986H3V396.982C3 396.697 3.05469 396.492 3.16406 396.367C3.27734 396.242 3.42383 396.18 3.60352 396.18C3.7832 396.18 3.92773 396.242 4.03711 396.367C4.15039 396.488 4.20703 396.693 4.20703 396.982L4.20117 398.986H5.91797C6.20703 398.986 6.41211 399.041 6.5332 399.15C6.6582 399.26 6.7207 399.404 6.7207 399.584C6.7207 399.764 6.6582 399.91 6.5332 400.023C6.41211 400.133 6.20703 400.188 5.91797 400.188H4.20117ZM12.9242 400.141H7.90859V399.045H12.9242V400.141ZM19.7312 400.141H14.7156V399.045H19.7312V400.141ZM26.5383 400.141H21.5227V399.045H26.5383V400.141ZM33.3453 400.141H28.3297V399.045H33.3453V400.141ZM40.1523 400.141H35.1367V399.045H40.1523V400.141ZM46.9594 400.141H41.9437V399.045H46.9594V400.141ZM53.7664 400.141H48.7508V399.045H53.7664V400.141ZM60.5734 400.141H55.5578V399.045H60.5734V400.141ZM67.3805 400.141H62.3648V399.045H67.3805V400.141ZM74.1875 400.141H69.1719V399.045H74.1875V400.141ZM80.9945 400.141H75.9789V399.045H80.9945V400.141ZM87.8016 400.141H82.7859V399.045H87.8016V400.141ZM94.6086 400.141H89.593V399.045H94.6086V400.141ZM101.416 400.141H96.4V399.045H101.416V400.141ZM108.223 400.141H103.207V399.045H108.223V400.141ZM115.03 400.141H110.014V399.045H115.03V400.141ZM121.837 400.141H116.821V399.045H121.837V400.141ZM128.644 400.141H123.628V399.045H128.644V400.141ZM135.451 400.141H130.435V399.045H135.451V400.141ZM142.258 400.141H137.242V399.045H142.258V400.141ZM149.065 400.141H144.049V399.045H149.065V400.141ZM155.872 400.141H150.856V399.045H155.872V400.141ZM162.679 400.141H157.663V399.045H162.679V400.141ZM169.486 400.141H164.47V399.045H169.486V400.141ZM176.293 400.141H171.277V399.045H176.293V400.141ZM183.1 400.141H178.084V399.045H183.1V400.141ZM189.907 400.141H184.891V399.045H189.907V400.141ZM196.714 400.141H191.698V399.045H196.714V400.141ZM203.521 400.141H198.505V399.045H203.521V400.141ZM210.328 400.141H205.312V399.045H210.328V400.141ZM217.135 400.141H212.12V399.045H217.135V400.141ZM223.942 400.141H218.927V399.045H223.942V400.141ZM230.749 400.141H225.734V399.045H230.749V400.141ZM237.556 400.141H232.541V399.045H237.556V400.141ZM244.363 400.141H239.348V399.045H244.363V400.141ZM251.17 400.141H246.155V399.045H251.17V400.141ZM257.977 400.141H252.962V399.045H257.977V400.141ZM264.784 400.141H259.769V399.045H264.784V400.141ZM271.591 400.141H266.576V399.045H271.591V400.141ZM278.398 400.141H273.383V399.045H278.398V400.141ZM285.205 400.141H280.19V399.045H285.205V400.141ZM292.013 400.141H286.997V399.045H292.013V400.141ZM298.82 400.141H293.804V399.045H298.82V400.141ZM305.627 400.141H300.611V399.045H305.627V400.141ZM312.434 400.141H307.418V399.045H312.434V400.141ZM319.241 400.141H314.225V399.045H319.241V400.141ZM326.048 400.141H321.032V399.045H326.048V400.141ZM332.855 400.141H327.839V399.045H332.855V400.141ZM339.662 400.141H334.646V399.045H339.662V400.141ZM346.469 400.141H341.453V399.045H346.469V400.141ZM353.276 400.141H348.26V399.045H353.276V400.141ZM360.083 400.141H355.067V399.045H360.083V400.141ZM366.89 400.141H361.874V399.045H366.89V400.141ZM373.697 400.141H368.681V399.045H373.697V400.141ZM380.504 400.141H375.488V399.045H380.504V400.141ZM387.311 400.141H382.295V399.045H387.311V400.141ZM394.118 400.141H389.102V399.045H394.118V400.141ZM399.009 400.188V402.197C399.009 402.486 398.954 402.693 398.845 402.818C398.736 402.939 398.591 403 398.411 403C398.232 403 398.085 402.939 397.972 402.818C397.862 402.693 397.808 402.486 397.808 402.197V400.188H396.091C395.802 400.188 395.595 400.133 395.47 400.023C395.349 399.91 395.288 399.764 395.288 399.584C395.288 399.404 395.349 399.26 395.47 399.15C395.595 399.037 395.802 398.982 396.091 398.986H397.808V396.982C397.808 396.697 397.862 396.492 397.972 396.367C398.085 396.242 398.232 396.18 398.411 396.18C398.591 396.18 398.736 396.242 398.845 396.367C398.958 396.488 399.015 396.693 399.015 396.982L399.009 398.986H400.726C401.015 398.986 401.22 399.041 401.341 399.15C401.466 399.26 401.529 399.404 401.529 399.584C401.529 399.764 401.466 399.91 401.341 400.023C401.22 400.133 401.015 400.188 400.726 400.188H399.009Z" fill="#006E03"/>
</svg>
