<svg>
	<symbol id="telegram" viewBox="0 0 22 18" fill="none" xmlns="http://www.w3.org/2000/svg">
		<path fill-rule="evenodd" clip-rule="evenodd" d="M1.51239 7.57669C7.41795 5.09292 11.3559 3.45547 13.3263 2.66433C18.9521 0.405482 20.1211 0.013095 20.883 0.000138149C21.0506 -0.00271157 21.4253 0.0373801 21.668 0.227498C21.873 0.388029 21.9294 0.604885 21.9563 0.757086C21.9833 0.909288 22.0169 1.25601 21.9902 1.52692C21.6854 4.61912 20.3662 12.1231 19.6951 15.5864C19.4111 17.0518 18.852 17.5432 18.3107 17.5913C17.1343 17.6958 16.2409 16.8408 15.1015 16.1198C13.3186 14.9915 12.3113 14.2892 10.5807 13.1883C8.58058 11.9159 9.87715 11.2166 11.017 10.0738C11.3153 9.7747 16.4986 5.22354 16.5989 4.81068C16.6115 4.75905 16.6231 4.56657 16.5046 4.46494C16.3862 4.36331 16.2114 4.39806 16.0852 4.4257C15.9064 4.46488 13.0581 6.28223 7.54035 9.87775C6.73187 10.4137 5.99958 10.6748 5.34347 10.6611C4.62016 10.646 3.2288 10.2663 2.19447 9.94175C0.925826 9.54366 -0.0824703 9.33318 0.00532971 8.6571C0.0510613 8.30495 0.553413 7.94482 1.51239 7.57669Z" fill="currentColor"/>
	</symbol>
	<symbol id="qr-code" viewBox="0 0 304 304" fill="none" xmlns="http://www.w3.org/2000/svg">
		<path d="M29.6585 252.098V274.341H51.9024V252.098H29.6585Z" fill="currentColor"/>
		<path d="M14.8293 289.171H66.7317V237.268H14.8293L14.8293 289.171ZM22.2439 281.756L22.2439 244.683H59.3171V281.756H22.2439Z" fill="currentColor"/>
		<path d="M274.341 51.9024V29.6585H252.098V51.9024H274.341Z" fill="currentColor"/>
		<path d="M289.171 14.8293L237.268 14.8293V66.7317H289.171V14.8293ZM281.756 22.2439V59.3171H244.683V22.2439L281.756 22.2439Z" fill="currentColor"/>
		<path d="M51.9024 29.6585H29.6585V51.9024H51.9024V29.6585Z" fill="currentColor"/>
		<path d="M14.8293 14.8293V66.7317H66.7317V14.8293H14.8293ZM22.2439 22.2439H59.3171V59.3171H22.2439V22.2439Z" fill="currentColor"/>
		<path d="M81.561 14.8293H74.1464V22.2439H81.561V14.8293Z" fill="currentColor"/>
		<path d="M88.9756 14.8293H81.561V22.2439H88.9756V14.8293Z" fill="currentColor"/>
		<path d="M111.22 14.8293H103.805V22.2439H111.22V14.8293Z" fill="currentColor"/>
		<path d="M140.878 14.8293H133.463V22.2439H140.878V14.8293Z" fill="currentColor"/>
		<path d="M148.293 14.8293H140.878V22.2439H148.293V14.8293Z" fill="currentColor"/>
		<path d="M177.951 14.8293H170.537V22.2439H177.951V14.8293Z" fill="currentColor"/>
		<path d="M185.366 14.8293H177.951V22.2439H185.366V14.8293Z" fill="currentColor"/>
		<path d="M200.195 14.8293H192.78V22.2439H200.195V14.8293Z" fill="currentColor"/>
		<path d="M229.854 14.8293H222.439V22.2439H229.854V14.8293Z" fill="currentColor"/>
		<path d="M88.9756 22.2439H81.561V29.6585H88.9756V22.2439Z" fill="currentColor"/>
		<path d="M96.3903 22.2439H88.9756V29.6585H96.3903V22.2439Z" fill="currentColor"/>
		<path d="M111.22 22.2439H103.805V29.6585H111.22V22.2439Z" fill="currentColor"/>
		<path d="M118.634 22.2439H111.22V29.6585H118.634V22.2439Z" fill="currentColor"/>
		<path d="M133.463 22.2439H126.049V29.6585H133.463V22.2439Z" fill="currentColor"/>
		<path d="M148.293 22.2439H140.878V29.6585H148.293V22.2439Z" fill="currentColor"/>
		<path d="M155.707 22.2439H148.293V29.6585H155.707V22.2439Z" fill="currentColor"/>
		<path d="M163.122 22.2439H155.707V29.6585H163.122V22.2439Z" fill="currentColor"/>
		<path d="M170.537 22.2439H163.122V29.6585H170.537V22.2439Z" fill="currentColor"/>
		<path d="M177.951 22.2439H170.537V29.6585H177.951V22.2439Z" fill="currentColor"/>
		<path d="M185.366 22.2439H177.951V29.6585H185.366V22.2439Z" fill="currentColor"/>
		<path d="M222.439 22.2439H215.024V29.6585H222.439V22.2439Z" fill="currentColor"/>
		<path d="M229.854 22.2439H222.439V29.6585H229.854V22.2439Z" fill="currentColor"/>
		<path d="M88.9756 29.6585H81.561V37.0732H88.9756V29.6585Z" fill="currentColor"/>
		<path d="M103.805 29.6585H96.3903V37.0732H103.805V29.6585Z" fill="currentColor"/>
		<path d="M111.22 29.6585H103.805V37.0732H111.22V29.6585Z" fill="currentColor"/>
		<path d="M140.878 29.6585H133.463V37.0732H140.878V29.6585Z" fill="currentColor"/>
		<path d="M148.293 29.6585H140.878V37.0732H148.293V29.6585Z" fill="currentColor"/>
		<path d="M155.707 29.6585H148.293V37.0732H155.707V29.6585Z" fill="currentColor"/>
		<path d="M170.537 29.6585H163.122V37.0732H170.537V29.6585Z" fill="currentColor"/>
		<path d="M177.951 29.6585H170.537V37.0732H177.951V29.6585Z" fill="currentColor"/>
		<path d="M185.366 29.6585H177.951V37.0732H185.366V29.6585Z" fill="currentColor"/>
		<path d="M200.195 29.6585H192.78V37.0732H200.195V29.6585Z" fill="currentColor"/>
		<path d="M229.854 29.6585H222.439V37.0732H229.854V29.6585Z" fill="currentColor"/>
		<path d="M96.3903 37.0732H88.9756V44.4878H96.3903V37.0732Z" fill="currentColor"/>
		<path d="M155.707 37.0732H148.293V44.4878H155.707V37.0732Z" fill="currentColor"/>
		<path d="M163.122 37.0732H155.707V44.4878H163.122V37.0732Z" fill="currentColor"/>
		<path d="M200.195 37.0732H192.78V44.4878H200.195V37.0732Z" fill="currentColor"/>
		<path d="M207.61 37.0732H200.195V44.4878H207.61V37.0732Z" fill="currentColor"/>
		<path d="M215.024 37.0732H207.61V44.4878H215.024V37.0732Z" fill="currentColor"/>
		<path d="M81.561 44.4878H74.1464V51.9024H81.561V44.4878Z" fill="currentColor"/>
		<path d="M96.3903 44.4878H88.9756V51.9024H96.3903V44.4878Z" fill="currentColor"/>
		<path d="M126.049 44.4878H118.634V51.9024H126.049V44.4878Z" fill="currentColor"/>
		<path d="M133.463 44.4878H126.049V51.9024H133.463V44.4878Z" fill="currentColor"/>
		<path d="M163.122 44.4878H155.707V51.9024H163.122V44.4878Z" fill="currentColor"/>
		<path d="M170.537 44.4878H163.122V51.9024H170.537V44.4878Z" fill="currentColor"/>
		<path d="M177.951 44.4878H170.537V51.9024H177.951V44.4878Z" fill="currentColor"/>
		<path d="M192.78 44.4878H185.366V51.9024H192.78V44.4878Z" fill="currentColor"/>
		<path d="M215.024 44.4878H207.61V51.9024H215.024V44.4878Z" fill="currentColor"/>
		<path d="M81.561 51.9024H74.1464V59.3171H81.561V51.9024Z" fill="currentColor"/>
		<path d="M88.9756 51.9024H81.561V59.3171H88.9756V51.9024Z" fill="currentColor"/>
		<path d="M96.3903 51.9024H88.9756V59.3171H96.3903V51.9024Z" fill="currentColor"/>
		<path d="M126.049 51.9024H118.634V59.3171H126.049V51.9024Z" fill="currentColor"/>
		<path d="M133.463 51.9024H126.049V59.3171H133.463V51.9024Z" fill="currentColor"/>
		<path d="M148.293 51.9024H140.878V59.3171H148.293V51.9024Z" fill="currentColor"/>
		<path d="M163.122 51.9024H155.707V59.3171H163.122V51.9024Z" fill="currentColor"/>
		<path d="M177.951 51.9024H170.537V59.3171H177.951V51.9024Z" fill="currentColor"/>
		<path d="M222.439 51.9024H215.024V59.3171H222.439V51.9024Z" fill="currentColor"/>
		<path d="M229.854 51.9024H222.439V59.3171H229.854V51.9024Z" fill="currentColor"/>
		<path d="M81.561 59.3171H74.1464V66.7317H81.561V59.3171Z" fill="currentColor"/>
		<path d="M96.3903 59.3171H88.9756V66.7317H96.3903V59.3171Z" fill="currentColor"/>
		<path d="M111.22 59.3171H103.805V66.7317H111.22V59.3171Z" fill="currentColor"/>
		<path d="M126.049 59.3171H118.634V66.7317H126.049V59.3171Z" fill="currentColor"/>
		<path d="M140.878 59.3171H133.463V66.7317H140.878V59.3171Z" fill="currentColor"/>
		<path d="M155.707 59.3171H148.293V66.7317H155.707V59.3171Z" fill="currentColor"/>
		<path d="M170.537 59.3171H163.122V66.7317H170.537V59.3171Z" fill="currentColor"/>
		<path d="M185.366 59.3171H177.951V66.7317H185.366V59.3171Z" fill="currentColor"/>
		<path d="M200.195 59.3171H192.78V66.7317H200.195V59.3171Z" fill="currentColor"/>
		<path d="M215.024 59.3171H207.61V66.7317H215.024V59.3171Z" fill="currentColor"/>
		<path d="M229.854 59.3171H222.439V66.7317H229.854V59.3171Z" fill="currentColor"/>
		<path d="M103.805 66.7317H96.3903V74.1463H103.805V66.7317Z" fill="currentColor"/>
		<path d="M111.22 66.7317H103.805V74.1463H111.22V66.7317Z" fill="currentColor"/>
		<path d="M118.634 66.7317H111.22V74.1463H118.634V66.7317Z" fill="currentColor"/>
		<path d="M133.463 66.7317H126.049V74.1463H133.463V66.7317Z" fill="currentColor"/>
		<path d="M140.878 66.7317H133.463V74.1463H140.878V66.7317Z" fill="currentColor"/>
		<path d="M177.951 66.7317H170.537V74.1463H177.951V66.7317Z" fill="currentColor"/>
		<path d="M185.366 66.7317H177.951V74.1463H185.366V66.7317Z" fill="currentColor"/>
		<path d="M215.024 66.7317H207.61V74.1463H215.024V66.7317Z" fill="currentColor"/>
		<path d="M229.854 66.7317H222.439V74.1463H229.854V66.7317Z" fill="currentColor"/>
		<path d="M29.6586 74.1463H22.2439V81.561H29.6586V74.1463Z" fill="currentColor"/>
		<path d="M37.0732 74.1463H29.6585V81.561H37.0732V74.1463Z" fill="currentColor"/>
		<path d="M44.4878 74.1463H37.0732V81.561H44.4878V74.1463Z" fill="currentColor"/>
		<path d="M51.9025 74.1463H44.4878V81.561H51.9025V74.1463Z" fill="currentColor"/>
		<path d="M59.3171 74.1463H51.9025V81.561H59.3171V74.1463Z" fill="currentColor"/>
		<path d="M66.7317 74.1463H59.3171V81.561H66.7317V74.1463Z" fill="currentColor"/>
		<path d="M74.1464 74.1463H66.7317V81.561H74.1464V74.1463Z" fill="currentColor"/>
		<path d="M118.634 74.1463H111.22V81.561H118.634V74.1463Z" fill="currentColor"/>
		<path d="M126.049 74.1463H118.634V81.561H126.049V74.1463Z" fill="currentColor"/>
		<path d="M133.463 74.1463H126.049V81.561H133.463V74.1463Z" fill="currentColor"/>
		<path d="M140.878 74.1463H133.463V81.561H140.878V74.1463Z" fill="currentColor"/>
		<path d="M148.293 74.1463H140.878V81.561H148.293V74.1463Z" fill="currentColor"/>
		<path d="M155.707 74.1463H148.293V81.561H155.707V74.1463Z" fill="currentColor"/>
		<path d="M170.537 74.1463H163.122V81.561H170.537V74.1463Z" fill="currentColor"/>
		<path d="M185.366 74.1463H177.951V81.561H185.366V74.1463Z" fill="currentColor"/>
		<path d="M200.195 74.1463H192.78V81.561H200.195V74.1463Z" fill="currentColor"/>
		<path d="M252.098 74.1463H244.683V81.561H252.098V74.1463Z" fill="currentColor"/>
		<path d="M259.512 74.1463H252.098V81.561H259.512V74.1463Z" fill="currentColor"/>
		<path d="M289.171 74.1463H281.756V81.561H289.171V74.1463Z" fill="currentColor"/>
		<path d="M22.2439 81.561H14.8293V88.9756H22.2439V81.561Z" fill="currentColor"/>
		<path d="M37.0732 81.561H29.6585V88.9756H37.0732V81.561Z" fill="currentColor"/>
		<path d="M44.4878 81.561H37.0732V88.9756H44.4878V81.561Z" fill="currentColor"/>
		<path d="M51.9025 81.561H44.4878V88.9756H51.9025V81.561Z" fill="currentColor"/>
		<path d="M81.561 81.561H74.1464V88.9756H81.561V81.561Z" fill="currentColor"/>
		<path d="M96.3903 81.561H88.9756V88.9756H96.3903V81.561Z" fill="currentColor"/>
		<path d="M103.805 81.561H96.3903V88.9756H103.805V81.561Z" fill="currentColor"/>
		<path d="M133.463 81.561H126.049V88.9756H133.463V81.561Z" fill="currentColor"/>
		<path d="M155.707 81.561H148.293V88.9756H155.707V81.561Z" fill="currentColor"/>
		<path d="M170.537 81.561H163.122V88.9756H170.537V81.561Z" fill="currentColor"/>
		<path d="M177.951 81.561H170.537V88.9756H177.951V81.561Z" fill="currentColor"/>
		<path d="M185.366 81.561H177.951V88.9756H185.366V81.561Z" fill="currentColor"/>
		<path d="M192.78 81.561H185.366V88.9756H192.78V81.561Z" fill="currentColor"/>
		<path d="M207.61 81.561H200.195V88.9756H207.61V81.561Z" fill="currentColor"/>
		<path d="M215.024 81.561H207.61V88.9756H215.024V81.561Z" fill="currentColor"/>
		<path d="M222.439 81.561H215.024V88.9756H222.439V81.561Z" fill="currentColor"/>
		<path d="M229.854 81.561H222.439V88.9756H229.854V81.561Z" fill="currentColor"/>
		<path d="M237.268 81.561H229.854V88.9756H237.268V81.561Z" fill="currentColor"/>
		<path d="M244.683 81.561H237.268V88.9756H244.683V81.561Z" fill="currentColor"/>
		<path d="M252.098 81.561H244.683V88.9756H252.098V81.561Z" fill="currentColor"/>
		<path d="M281.756 81.561H274.341V88.9756H281.756V81.561Z" fill="currentColor"/>
		<path d="M22.2439 88.9756H14.8293V96.3902H22.2439V88.9756Z" fill="currentColor"/>
		<path d="M44.4878 88.9756H37.0732V96.3902H44.4878V88.9756Z" fill="currentColor"/>
		<path d="M51.9025 88.9756H44.4878V96.3902H51.9025V88.9756Z" fill="currentColor"/>
		<path d="M59.3171 88.9756H51.9025V96.3902H59.3171V88.9756Z" fill="currentColor"/>
		<path d="M66.7317 88.9756H59.3171V96.3902H66.7317V88.9756Z" fill="currentColor"/>
		<path d="M81.561 88.9756H74.1464V96.3902H81.561V88.9756Z" fill="currentColor"/>
		<path d="M88.9756 88.9756H81.561V96.3902H88.9756V88.9756Z" fill="currentColor"/>
		<path d="M111.22 88.9756H103.805V96.3902H111.22V88.9756Z" fill="currentColor"/>
		<path d="M118.634 88.9756H111.22V96.3902H118.634V88.9756Z" fill="currentColor"/>
		<path d="M148.293 88.9756H140.878V96.3902H148.293V88.9756Z" fill="currentColor"/>
		<path d="M155.707 88.9756H148.293V96.3902H155.707V88.9756Z" fill="currentColor"/>
		<path d="M163.122 88.9756H155.707V96.3902H163.122V88.9756Z" fill="currentColor"/>
		<path d="M170.537 88.9756H163.122V96.3902H170.537V88.9756Z" fill="currentColor"/>
		<path d="M185.366 88.9756H177.951V96.3902H185.366V88.9756Z" fill="currentColor"/>
		<path d="M207.61 88.9756H200.195V96.3902H207.61V88.9756Z" fill="currentColor"/>
		<path d="M215.024 88.9756H207.61V96.3902H215.024V88.9756Z" fill="currentColor"/>
		<path d="M244.683 88.9756H237.268V96.3902H244.683V88.9756Z" fill="currentColor"/>
		<path d="M252.098 88.9756H244.683V96.3902H252.098V88.9756Z" fill="currentColor"/>
		<path d="M259.512 88.9756H252.098V96.3902H259.512V88.9756Z" fill="currentColor"/>
		<path d="M281.756 88.9756H274.341V96.3902H281.756V88.9756Z" fill="currentColor"/>
		<path d="M289.171 88.9756H281.756V96.3902H289.171V88.9756Z" fill="currentColor"/>
		<path d="M22.2439 96.3903H14.8293V103.805H22.2439V96.3903Z" fill="currentColor"/>
		<path d="M96.3903 96.3903H88.9756V103.805H96.3903V96.3903Z" fill="currentColor"/>
		<path d="M111.22 96.3903H103.805V103.805H111.22V96.3903Z" fill="currentColor"/>
		<path d="M126.049 96.3903H118.634V103.805H126.049V96.3903Z" fill="currentColor"/>
		<path d="M140.878 96.3903H133.463V103.805H140.878V96.3903Z" fill="currentColor"/>
		<path d="M148.293 96.3903H140.878V103.805H148.293V96.3903Z" fill="currentColor"/>
		<path d="M170.537 96.3903H163.122V103.805H170.537V96.3903Z" fill="currentColor"/>
		<path d="M177.951 96.3903H170.537V103.805H177.951V96.3903Z" fill="currentColor"/>
		<path d="M192.78 96.3903H185.366V103.805H192.78V96.3903Z" fill="currentColor"/>
		<path d="M215.024 96.3903H207.61V103.805H215.024V96.3903Z" fill="currentColor"/>
		<path d="M229.854 96.3903H222.439V103.805H229.854V96.3903Z" fill="currentColor"/>
		<path d="M244.683 96.3903H237.268V103.805H244.683V96.3903Z" fill="currentColor"/>
		<path d="M252.098 96.3903H244.683V103.805H252.098V96.3903Z" fill="currentColor"/>
		<path d="M259.512 96.3903H252.098V103.805H259.512V96.3903Z" fill="currentColor"/>
		<path d="M281.756 96.3903H274.341V103.805H281.756V96.3903Z" fill="currentColor"/>
		<path d="M22.2439 103.805H14.8293V111.22H22.2439V103.805Z" fill="currentColor"/>
		<path d="M37.0732 103.805H29.6585V111.22H37.0732V103.805Z" fill="currentColor"/>
		<path d="M44.4878 103.805H37.0732V111.22H44.4878V103.805Z" fill="currentColor"/>
		<path d="M51.9025 103.805H44.4878V111.22H51.9025V103.805Z" fill="currentColor"/>
		<path d="M66.7317 103.805H59.3171V111.22H66.7317V103.805Z" fill="currentColor"/>
		<path d="M74.1464 103.805H66.7317V111.22H74.1464V103.805Z" fill="currentColor"/>
		<path d="M103.805 103.805H96.3903V111.22H103.805V103.805Z" fill="currentColor"/>
		<path d="M126.049 103.805H118.634V111.22H126.049V103.805Z" fill="currentColor"/>
		<path d="M133.463 103.805H126.049V111.22H133.463V103.805Z" fill="currentColor"/>
		<path d="M140.878 103.805H133.463V111.22H140.878V103.805Z" fill="currentColor"/>
		<path d="M155.707 103.805H148.293V111.22H155.707V103.805Z" fill="currentColor"/>
		<path d="M177.951 103.805H170.537V111.22H177.951V103.805Z" fill="currentColor"/>
		<path d="M185.366 103.805H177.951V111.22H185.366V103.805Z" fill="currentColor"/>
		<path d="M192.78 103.805H185.366V111.22H192.78V103.805Z" fill="currentColor"/>
		<path d="M200.195 103.805H192.78V111.22H200.195V103.805Z" fill="currentColor"/>
		<path d="M207.61 103.805H200.195V111.22H207.61V103.805Z" fill="currentColor"/>
		<path d="M215.024 103.805H207.61V111.22H215.024V103.805Z" fill="currentColor"/>
		<path d="M229.854 103.805H222.439V111.22H229.854V103.805Z" fill="currentColor"/>
		<path d="M237.268 103.805H229.854V111.22H237.268V103.805Z" fill="currentColor"/>
		<path d="M244.683 103.805H237.268V111.22H244.683V103.805Z" fill="currentColor"/>
		<path d="M252.098 103.805H244.683V111.22H252.098V103.805Z" fill="currentColor"/>
		<path d="M259.512 103.805H252.098V111.22H259.512V103.805Z" fill="currentColor"/>
		<path d="M274.341 103.805H266.927V111.22H274.341V103.805Z" fill="currentColor"/>
		<path d="M281.756 103.805H274.341V111.22H281.756V103.805Z" fill="currentColor"/>
		<path d="M29.6586 111.22H22.2439V118.634H29.6586V111.22Z" fill="currentColor"/>
		<path d="M37.0732 111.22H29.6585V118.634H37.0732V111.22Z" fill="currentColor"/>
		<path d="M51.9025 111.22H44.4878V118.634H51.9025V111.22Z" fill="currentColor"/>
		<path d="M74.1464 111.22H66.7317V118.634H74.1464V111.22Z" fill="currentColor"/>
		<path d="M103.805 111.22H96.3903V118.634H103.805V111.22Z" fill="currentColor"/>
		<path d="M118.634 111.22H111.22V118.634H118.634V111.22Z" fill="currentColor"/>
		<path d="M126.049 111.22H118.634V118.634H126.049V111.22Z" fill="currentColor"/>
		<path d="M140.878 111.22H133.463V118.634H140.878V111.22Z" fill="currentColor"/>
		<path d="M170.537 111.22H163.122V118.634H170.537V111.22Z" fill="currentColor"/>
		<path d="M185.366 111.22H177.951V118.634H185.366V111.22Z" fill="currentColor"/>
		<path d="M192.78 111.22H185.366V118.634H192.78V111.22Z" fill="currentColor"/>
		<path d="M215.024 111.22H207.61V118.634H215.024V111.22Z" fill="currentColor"/>
		<path d="M229.854 111.22H222.439V118.634H229.854V111.22Z" fill="currentColor"/>
		<path d="M237.268 111.22H229.854V118.634H237.268V111.22Z" fill="currentColor"/>
		<path d="M252.098 111.22H244.683V118.634H252.098V111.22Z" fill="currentColor"/>
		<path d="M266.927 111.22H259.512V118.634H266.927V111.22Z" fill="currentColor"/>
		<path d="M274.341 111.22H266.927V118.634H274.341V111.22Z" fill="currentColor"/>
		<path d="M22.2439 118.634H14.8293V126.049H22.2439V118.634Z" fill="currentColor"/>
		<path d="M66.7317 118.634H59.3171V126.049H66.7317V118.634Z" fill="currentColor"/>
		<path d="M88.9756 118.634H81.561V126.049H88.9756V118.634Z" fill="currentColor"/>
		<path d="M96.3903 118.634H88.9756V126.049H96.3903V118.634Z" fill="currentColor"/>
		<path d="M111.22 118.634H103.805V126.049H111.22V118.634Z" fill="currentColor"/>
		<path d="M118.634 118.634H111.22V126.049H118.634V118.634Z" fill="currentColor"/>
		<path d="M133.463 118.634H126.049V126.049H133.463V118.634Z" fill="currentColor"/>
		<path d="M148.293 118.634H140.878V126.049H148.293V118.634Z" fill="currentColor"/>
		<path d="M155.707 118.634H148.293V126.049H155.707V118.634Z" fill="currentColor"/>
		<path d="M185.366 118.634H177.951V126.049H185.366V118.634Z" fill="currentColor"/>
		<path d="M207.61 118.634H200.195V126.049H207.61V118.634Z" fill="currentColor"/>
		<path d="M222.439 118.634H215.024V126.049H222.439V118.634Z" fill="currentColor"/>
		<path d="M229.854 118.634H222.439V126.049H229.854V118.634Z" fill="currentColor"/>
		<path d="M244.683 118.634H237.268V126.049H244.683V118.634Z" fill="currentColor"/>
		<path d="M252.098 118.634H244.683V126.049H252.098V118.634Z" fill="currentColor"/>
		<path d="M266.927 118.634H259.512V126.049H266.927V118.634Z" fill="currentColor"/>
		<path d="M281.756 118.634H274.341V126.049H281.756V118.634Z" fill="currentColor"/>
		<path d="M289.171 118.634H281.756V126.049H289.171V118.634Z" fill="currentColor"/>
		<path d="M22.2439 126.049H14.8293V133.463H22.2439V126.049Z" fill="currentColor"/>
		<path d="M37.0732 126.049H29.6585V133.463H37.0732V126.049Z" fill="currentColor"/>
		<path d="M51.9025 126.049H44.4878V133.463H51.9025V126.049Z" fill="currentColor"/>
		<path d="M81.561 126.049H74.1464V133.463H81.561V126.049Z" fill="currentColor"/>
		<path d="M88.9756 126.049H81.561V133.463H88.9756V126.049Z" fill="currentColor"/>
		<path d="M111.22 126.049H103.805V133.463H111.22V126.049Z" fill="currentColor"/>
		<path d="M118.634 126.049H111.22V133.463H118.634V126.049Z" fill="currentColor"/>
		<path d="M133.463 126.049H126.049V133.463H133.463V126.049Z" fill="currentColor"/>
		<path d="M155.707 126.049H148.293V133.463H155.707V126.049Z" fill="currentColor"/>
		<path d="M163.122 126.049H155.707V133.463H163.122V126.049Z" fill="currentColor"/>
		<path d="M222.439 126.049H215.024V133.463H222.439V126.049Z" fill="currentColor"/>
		<path d="M237.268 126.049H229.854V133.463H237.268V126.049Z" fill="currentColor"/>
		<path d="M244.683 126.049H237.268V133.463H244.683V126.049Z" fill="currentColor"/>
		<path d="M281.756 126.049H274.341V133.463H281.756V126.049Z" fill="currentColor"/>
		<path d="M22.2439 133.463H14.8293V140.878H22.2439V133.463Z" fill="currentColor"/>
		<path d="M51.9025 133.463H44.4878V140.878H51.9025V133.463Z" fill="currentColor"/>
		<path d="M66.7317 133.463H59.3171V140.878H66.7317V133.463Z" fill="currentColor"/>
		<path d="M74.1464 133.463H66.7317V140.878H74.1464V133.463Z" fill="currentColor"/>
		<path d="M81.561 133.463H74.1464V140.878H81.561V133.463Z" fill="currentColor"/>
		<path d="M88.9756 133.463H81.561V140.878H88.9756V133.463Z" fill="currentColor"/>
		<path d="M126.049 133.463H118.634V140.878H126.049V133.463Z" fill="currentColor"/>
		<path d="M140.878 133.463H133.463V140.878H140.878V133.463Z" fill="currentColor"/>
		<path d="M148.293 133.463H140.878V140.878H148.293V133.463Z" fill="currentColor"/>
		<path d="M155.707 133.463H148.293V140.878H155.707V133.463Z" fill="currentColor"/>
		<path d="M163.122 133.463H155.707V140.878H163.122V133.463Z" fill="currentColor"/>
		<path d="M177.951 133.463H170.537V140.878H177.951V133.463Z" fill="currentColor"/>
		<path d="M185.366 133.463H177.951V140.878H185.366V133.463Z" fill="currentColor"/>
		<path d="M192.78 133.463H185.366V140.878H192.78V133.463Z" fill="currentColor"/>
		<path d="M200.195 133.463H192.78V140.878H200.195V133.463Z" fill="currentColor"/>
		<path d="M207.61 133.463H200.195V140.878H207.61V133.463Z" fill="currentColor"/>
		<path d="M215.024 133.463H207.61V140.878H215.024V133.463Z" fill="currentColor"/>
		<path d="M222.439 133.463H215.024V140.878H222.439V133.463Z" fill="currentColor"/>
		<path d="M229.854 133.463H222.439V140.878H229.854V133.463Z" fill="currentColor"/>
		<path d="M237.268 133.463H229.854V140.878H237.268V133.463Z" fill="currentColor"/>
		<path d="M244.683 133.463H237.268V140.878H244.683V133.463Z" fill="currentColor"/>
		<path d="M259.512 133.463H252.098V140.878H259.512V133.463Z" fill="currentColor"/>
		<path d="M274.341 133.463H266.927V140.878H274.341V133.463Z" fill="currentColor"/>
		<path d="M281.756 133.463H274.341V140.878H281.756V133.463Z" fill="currentColor"/>
		<path d="M22.2439 140.878H14.8293V148.293H22.2439V140.878Z" fill="currentColor"/>
		<path d="M44.4878 140.878H37.0732V148.293H44.4878V140.878Z" fill="currentColor"/>
		<path d="M51.9025 140.878H44.4878V148.293H51.9025V140.878Z" fill="currentColor"/>
		<path d="M59.3171 140.878H51.9025V148.293H59.3171V140.878Z" fill="currentColor"/>
		<path d="M88.9756 140.878H81.561V148.293H88.9756V140.878Z" fill="currentColor"/>
		<path d="M103.805 140.878H96.3903V148.293H103.805V140.878Z" fill="currentColor"/>
		<path d="M111.22 140.878H103.805V148.293H111.22V140.878Z" fill="currentColor"/>
		<path d="M118.634 140.878H111.22V148.293H118.634V140.878Z" fill="currentColor"/>
		<path d="M126.049 140.878H118.634V148.293H126.049V140.878Z" fill="currentColor"/>
		<path d="M155.707 140.878H148.293V148.293H155.707V140.878Z" fill="currentColor"/>
		<path d="M163.122 140.878H155.707V148.293H163.122V140.878Z" fill="currentColor"/>
		<path d="M170.537 140.878H163.122V148.293H170.537V140.878Z" fill="currentColor"/>
		<path d="M222.439 140.878H215.024V148.293H222.439V140.878Z" fill="currentColor"/>
		<path d="M229.854 140.878H222.439V148.293H229.854V140.878Z" fill="currentColor"/>
		<path d="M237.268 140.878H229.854V148.293H237.268V140.878Z" fill="currentColor"/>
		<path d="M252.098 140.878H244.683V148.293H252.098V140.878Z" fill="currentColor"/>
		<path d="M274.341 140.878H266.927V148.293H274.341V140.878Z" fill="currentColor"/>
		<path d="M22.2439 148.293H14.8293V155.707H22.2439V148.293Z" fill="currentColor"/>
		<path d="M29.6586 148.293H22.2439V155.707H29.6586V148.293Z" fill="currentColor"/>
		<path d="M37.0732 148.293H29.6585V155.707H37.0732V148.293Z" fill="currentColor"/>
		<path d="M51.9025 148.293H44.4878V155.707H51.9025V148.293Z" fill="currentColor"/>
		<path d="M66.7317 148.293H59.3171V155.707H66.7317V148.293Z" fill="currentColor"/>
		<path d="M74.1464 148.293H66.7317V155.707H74.1464V148.293Z" fill="currentColor"/>
		<path d="M88.9756 148.293H81.561V155.707H88.9756V148.293Z" fill="currentColor"/>
		<path d="M96.3903 148.293H88.9756V155.707H96.3903V148.293Z" fill="currentColor"/>
		<path d="M118.634 148.293H111.22V155.707H118.634V148.293Z" fill="currentColor"/>
		<path d="M140.878 148.293H133.463V155.707H140.878V148.293Z" fill="currentColor"/>
		<path d="M155.707 148.293H148.293V155.707H155.707V148.293Z" fill="currentColor"/>
		<path d="M163.122 148.293H155.707V155.707H163.122V148.293Z" fill="currentColor"/>
		<path d="M185.366 148.293H177.951V155.707H185.366V148.293Z" fill="currentColor"/>
		<path d="M192.78 148.293H185.366V155.707H192.78V148.293Z" fill="currentColor"/>
		<path d="M200.195 148.293H192.78V155.707H200.195V148.293Z" fill="currentColor"/>
		<path d="M222.439 148.293H215.024V155.707H222.439V148.293Z" fill="currentColor"/>
		<path d="M244.683 148.293H237.268V155.707H244.683V148.293Z" fill="currentColor"/>
		<path d="M281.756 148.293H274.341V155.707H281.756V148.293Z" fill="currentColor"/>
		<path d="M289.171 148.293H281.756V155.707H289.171V148.293Z" fill="currentColor"/>
		<path d="M22.2439 155.707H14.8293V163.122H22.2439V155.707Z" fill="currentColor"/>
		<path d="M44.4878 155.707H37.0732V163.122H44.4878V155.707Z" fill="currentColor"/>
		<path d="M96.3903 155.707H88.9756V163.122H96.3903V155.707Z" fill="currentColor"/>
		<path d="M103.805 155.707H96.3903V163.122H103.805V155.707Z" fill="currentColor"/>
		<path d="M111.22 155.707H103.805V163.122H111.22V155.707Z" fill="currentColor"/>
		<path d="M126.049 155.707H118.634V163.122H126.049V155.707Z" fill="currentColor"/>
		<path d="M140.878 155.707H133.463V163.122H140.878V155.707Z" fill="currentColor"/>
		<path d="M155.707 155.707H148.293V163.122H155.707V155.707Z" fill="currentColor"/>
		<path d="M177.951 155.707H170.537V163.122H177.951V155.707Z" fill="currentColor"/>
		<path d="M185.366 155.707H177.951V163.122H185.366V155.707Z" fill="currentColor"/>
		<path d="M192.78 155.707H185.366V163.122H192.78V155.707Z" fill="currentColor"/>
		<path d="M222.439 155.707H215.024V163.122H222.439V155.707Z" fill="currentColor"/>
		<path d="M259.512 155.707H252.098V163.122H259.512V155.707Z" fill="currentColor"/>
		<path d="M281.756 155.707H274.341V163.122H281.756V155.707Z" fill="currentColor"/>
		<path d="M44.4878 163.122H37.0732V170.537H44.4878V163.122Z" fill="currentColor"/>
		<path d="M66.7317 163.122H59.3171V170.537H66.7317V163.122Z" fill="currentColor"/>
		<path d="M133.463 163.122H126.049V170.537H133.463V163.122Z" fill="currentColor"/>
		<path d="M140.878 163.122H133.463V170.537H140.878V163.122Z" fill="currentColor"/>
		<path d="M148.293 163.122H140.878V170.537H148.293V163.122Z" fill="currentColor"/>
		<path d="M155.707 163.122H148.293V170.537H155.707V163.122Z" fill="currentColor"/>
		<path d="M163.122 163.122H155.707V170.537H163.122V163.122Z" fill="currentColor"/>
		<path d="M170.537 163.122H163.122V170.537H170.537V163.122Z" fill="currentColor"/>
		<path d="M185.366 163.122H177.951V170.537H185.366V163.122Z" fill="currentColor"/>
		<path d="M192.78 163.122H185.366V170.537H192.78V163.122Z" fill="currentColor"/>
		<path d="M200.195 163.122H192.78V170.537H200.195V163.122Z" fill="currentColor"/>
		<path d="M207.61 163.122H200.195V170.537H207.61V163.122Z" fill="currentColor"/>
		<path d="M237.268 163.122H229.854V170.537H237.268V163.122Z" fill="currentColor"/>
		<path d="M244.683 163.122H237.268V170.537H244.683V163.122Z" fill="currentColor"/>
		<path d="M252.098 163.122H244.683V170.537H252.098V163.122Z" fill="currentColor"/>
		<path d="M259.512 163.122H252.098V170.537H259.512V163.122Z" fill="currentColor"/>
		<path d="M266.927 163.122H259.512V170.537H266.927V163.122Z" fill="currentColor"/>
		<path d="M274.341 163.122H266.927V170.537H274.341V163.122Z" fill="currentColor"/>
		<path d="M289.171 163.122H281.756V170.537H289.171V163.122Z" fill="currentColor"/>
		<path d="M29.6586 170.537H22.2439V177.951H29.6586V170.537Z" fill="currentColor"/>
		<path d="M51.9025 170.537H44.4878V177.951H51.9025V170.537Z" fill="currentColor"/>
		<path d="M81.561 170.537H74.1464V177.951H81.561V170.537Z" fill="currentColor"/>
		<path d="M88.9756 170.537H81.561V177.951H88.9756V170.537Z" fill="currentColor"/>
		<path d="M96.3903 170.537H88.9756V177.951H96.3903V170.537Z" fill="currentColor"/>
		<path d="M103.805 170.537H96.3903V177.951H103.805V170.537Z" fill="currentColor"/>
		<path d="M126.049 170.537H118.634V177.951H126.049V170.537Z" fill="currentColor"/>
		<path d="M133.463 170.537H126.049V177.951H133.463V170.537Z" fill="currentColor"/>
		<path d="M163.122 170.537H155.707V177.951H163.122V170.537Z" fill="currentColor"/>
		<path d="M170.537 170.537H163.122V177.951H170.537V170.537Z" fill="currentColor"/>
		<path d="M177.951 170.537H170.537V177.951H177.951V170.537Z" fill="currentColor"/>
		<path d="M192.78 170.537H185.366V177.951H192.78V170.537Z" fill="currentColor"/>
		<path d="M207.61 170.537H200.195V177.951H207.61V170.537Z" fill="currentColor"/>
		<path d="M215.024 170.537H207.61V177.951H215.024V170.537Z" fill="currentColor"/>
		<path d="M237.268 170.537H229.854V177.951H237.268V170.537Z" fill="currentColor"/>
		<path d="M252.098 170.537H244.683V177.951H252.098V170.537Z" fill="currentColor"/>
		<path d="M266.927 170.537H259.512V177.951H266.927V170.537Z" fill="currentColor"/>
		<path d="M281.756 170.537H274.341V177.951H281.756V170.537Z" fill="currentColor"/>
		<path d="M37.0732 177.951H29.6585V185.366H37.0732V177.951Z" fill="currentColor"/>
		<path d="M44.4878 177.951H37.0732V185.366H44.4878V177.951Z" fill="currentColor"/>
		<path d="M51.9025 177.951H44.4878V185.366H51.9025V177.951Z" fill="currentColor"/>
		<path d="M59.3171 177.951H51.9025V185.366H59.3171V177.951Z" fill="currentColor"/>
		<path d="M66.7317 177.951H59.3171V185.366H66.7317V177.951Z" fill="currentColor"/>
		<path d="M74.1464 177.951H66.7317V185.366H74.1464V177.951Z" fill="currentColor"/>
		<path d="M88.9756 177.951H81.561V185.366H88.9756V177.951Z" fill="currentColor"/>
		<path d="M118.634 177.951H111.22V185.366H118.634V177.951Z" fill="currentColor"/>
		<path d="M126.049 177.951H118.634V185.366H126.049V177.951Z" fill="currentColor"/>
		<path d="M140.878 177.951H133.463V185.366H140.878V177.951Z" fill="currentColor"/>
		<path d="M148.293 177.951H140.878V185.366H148.293V177.951Z" fill="currentColor"/>
		<path d="M155.707 177.951H148.293V185.366H155.707V177.951Z" fill="currentColor"/>
		<path d="M177.951 177.951H170.537V185.366H177.951V177.951Z" fill="currentColor"/>
		<path d="M200.195 177.951H192.78V185.366H200.195V177.951Z" fill="currentColor"/>
		<path d="M207.61 177.951H200.195V185.366H207.61V177.951Z" fill="currentColor"/>
		<path d="M215.024 177.951H207.61V185.366H215.024V177.951Z" fill="currentColor"/>
		<path d="M222.439 177.951H215.024V185.366H222.439V177.951Z" fill="currentColor"/>
		<path d="M274.341 177.951H266.927V185.366H274.341V177.951Z" fill="currentColor"/>
		<path d="M281.756 177.951H274.341V185.366H281.756V177.951Z" fill="currentColor"/>
		<path d="M289.171 177.951H281.756V185.366H289.171V177.951Z" fill="currentColor"/>
		<path d="M22.2439 185.366H14.8293V192.78H22.2439V185.366Z" fill="currentColor"/>
		<path d="M29.6586 185.366H22.2439V192.78H29.6586V185.366Z" fill="currentColor"/>
		<path d="M37.0732 185.366H29.6585V192.78H37.0732V185.366Z" fill="currentColor"/>
		<path d="M44.4878 185.366H37.0732V192.78H44.4878V185.366Z" fill="currentColor"/>
		<path d="M51.9025 185.366H44.4878V192.78H51.9025V185.366Z" fill="currentColor"/>
		<path d="M88.9756 185.366H81.561V192.78H88.9756V185.366Z" fill="currentColor"/>
		<path d="M96.3903 185.366H88.9756V192.78H96.3903V185.366Z" fill="currentColor"/>
		<path d="M133.463 185.366H126.049V192.78H133.463V185.366Z" fill="currentColor"/>
		<path d="M140.878 185.366H133.463V192.78H140.878V185.366Z" fill="currentColor"/>
		<path d="M170.537 185.366H163.122V192.78H170.537V185.366Z" fill="currentColor"/>
		<path d="M177.951 185.366H170.537V192.78H177.951V185.366Z" fill="currentColor"/>
		<path d="M192.78 185.366H185.366V192.78H192.78V185.366Z" fill="currentColor"/>
		<path d="M200.195 185.366H192.78V192.78H200.195V185.366Z" fill="currentColor"/>
		<path d="M207.61 185.366H200.195V192.78H207.61V185.366Z" fill="currentColor"/>
		<path d="M237.268 185.366H229.854V192.78H237.268V185.366Z" fill="currentColor"/>
		<path d="M244.683 185.366H237.268V192.78H244.683V185.366Z" fill="currentColor"/>
		<path d="M252.098 185.366H244.683V192.78H252.098V185.366Z" fill="currentColor"/>
		<path d="M289.171 185.366H281.756V192.78H289.171V185.366Z" fill="currentColor"/>
		<path d="M22.2439 192.78H14.8293V200.195H22.2439V192.78Z" fill="currentColor"/>
		<path d="M29.6586 192.78H22.2439V200.195H29.6586V192.78Z" fill="currentColor"/>
		<path d="M37.0732 192.78H29.6585V200.195H37.0732V192.78Z" fill="currentColor"/>
		<path d="M44.4878 192.78H37.0732V200.195H44.4878V192.78Z" fill="currentColor"/>
		<path d="M66.7317 192.78H59.3171V200.195H66.7317V192.78Z" fill="currentColor"/>
		<path d="M74.1464 192.78H66.7317V200.195H74.1464V192.78Z" fill="currentColor"/>
		<path d="M81.561 192.78H74.1464V200.195H81.561V192.78Z" fill="currentColor"/>
		<path d="M88.9756 192.78H81.561V200.195H88.9756V192.78Z" fill="currentColor"/>
		<path d="M126.049 192.78H118.634V200.195H126.049V192.78Z" fill="currentColor"/>
		<path d="M148.293 192.78H140.878V200.195H148.293V192.78Z" fill="currentColor"/>
		<path d="M163.122 192.78H155.707V200.195H163.122V192.78Z" fill="currentColor"/>
		<path d="M185.366 192.78H177.951V200.195H185.366V192.78Z" fill="currentColor"/>
		<path d="M200.195 192.78H192.78V200.195H200.195V192.78Z" fill="currentColor"/>
		<path d="M215.024 192.78H207.61V200.195H215.024V192.78Z" fill="currentColor"/>
		<path d="M237.268 192.78H229.854V200.195H237.268V192.78Z" fill="currentColor"/>
		<path d="M244.683 192.78H237.268V200.195H244.683V192.78Z" fill="currentColor"/>
		<path d="M274.341 192.78H266.927V200.195H274.341V192.78Z" fill="currentColor"/>
		<path d="M22.2439 200.195H14.8293V207.61H22.2439V200.195Z" fill="currentColor"/>
		<path d="M44.4878 200.195H37.0732V207.61H44.4878V200.195Z" fill="currentColor"/>
		<path d="M51.9025 200.195H44.4878V207.61H51.9025V200.195Z" fill="currentColor"/>
		<path d="M81.561 200.195H74.1464V207.61H81.561V200.195Z" fill="currentColor"/>
		<path d="M118.634 200.195H111.22V207.61H118.634V200.195Z" fill="currentColor"/>
		<path d="M140.878 200.195H133.463V207.61H140.878V200.195Z" fill="currentColor"/>
		<path d="M155.707 200.195H148.293V207.61H155.707V200.195Z" fill="currentColor"/>
		<path d="M163.122 200.195H155.707V207.61H163.122V200.195Z" fill="currentColor"/>
		<path d="M185.366 200.195H177.951V207.61H185.366V200.195Z" fill="currentColor"/>
		<path d="M192.78 200.195H185.366V207.61H192.78V200.195Z" fill="currentColor"/>
		<path d="M200.195 200.195H192.78V207.61H200.195V200.195Z" fill="currentColor"/>
		<path d="M222.439 200.195H215.024V207.61H222.439V200.195Z" fill="currentColor"/>
		<path d="M244.683 200.195H237.268V207.61H244.683V200.195Z" fill="currentColor"/>
		<path d="M252.098 200.195H244.683V207.61H252.098V200.195Z" fill="currentColor"/>
		<path d="M266.927 200.195H259.512V207.61H266.927V200.195Z" fill="currentColor"/>
		<path d="M281.756 200.195H274.341V207.61H281.756V200.195Z" fill="currentColor"/>
		<path d="M22.2439 207.61H14.8293V215.024H22.2439V207.61Z" fill="currentColor"/>
		<path d="M51.9025 207.61H44.4878V215.024H51.9025V207.61Z" fill="currentColor"/>
		<path d="M59.3171 207.61H51.9025V215.024H59.3171V207.61Z" fill="currentColor"/>
		<path d="M66.7317 207.61H59.3171V215.024H66.7317V207.61Z" fill="currentColor"/>
		<path d="M74.1464 207.61H66.7317V215.024H74.1464V207.61Z" fill="currentColor"/>
		<path d="M103.805 207.61H96.3903V215.024H103.805V207.61Z" fill="currentColor"/>
		<path d="M111.22 207.61H103.805V215.024H111.22V207.61Z" fill="currentColor"/>
		<path d="M126.049 207.61H118.634V215.024H126.049V207.61Z" fill="currentColor"/>
		<path d="M155.707 207.61H148.293V215.024H155.707V207.61Z" fill="currentColor"/>
		<path d="M163.122 207.61H155.707V215.024H163.122V207.61Z" fill="currentColor"/>
		<path d="M170.537 207.61H163.122V215.024H170.537V207.61Z" fill="currentColor"/>
		<path d="M185.366 207.61H177.951V215.024H185.366V207.61Z" fill="currentColor"/>
		<path d="M200.195 207.61H192.78V215.024H200.195V207.61Z" fill="currentColor"/>
		<path d="M215.024 207.61H207.61V215.024H215.024V207.61Z" fill="currentColor"/>
		<path d="M222.439 207.61H215.024V215.024H222.439V207.61Z" fill="currentColor"/>
		<path d="M244.683 207.61H237.268V215.024H244.683V207.61Z" fill="currentColor"/>
		<path d="M252.098 207.61H244.683V215.024H252.098V207.61Z" fill="currentColor"/>
		<path d="M259.512 207.61H252.098V215.024H259.512V207.61Z" fill="currentColor"/>
		<path d="M274.341 207.61H266.927V215.024H274.341V207.61Z" fill="currentColor"/>
		<path d="M289.171 207.61H281.756V215.024H289.171V207.61Z" fill="currentColor"/>
		<path d="M22.2439 215.024H14.8293V222.439H22.2439V215.024Z" fill="currentColor"/>
		<path d="M37.0732 215.024H29.6585V222.439H37.0732V215.024Z" fill="currentColor"/>
		<path d="M44.4878 215.024H37.0732V222.439H44.4878V215.024Z" fill="currentColor"/>
		<path d="M59.3171 215.024H51.9025V222.439H59.3171V215.024Z" fill="currentColor"/>
		<path d="M74.1464 215.024H66.7317V222.439H74.1464V215.024Z" fill="currentColor"/>
		<path d="M88.9756 215.024H81.561V222.439H88.9756V215.024Z" fill="currentColor"/>
		<path d="M96.3903 215.024H88.9756V222.439H96.3903V215.024Z" fill="currentColor"/>
		<path d="M118.634 215.024H111.22V222.439H118.634V215.024Z" fill="currentColor"/>
		<path d="M126.049 215.024H118.634V222.439H126.049V215.024Z" fill="currentColor"/>
		<path d="M133.463 215.024H126.049V222.439H133.463V215.024Z" fill="currentColor"/>
		<path d="M140.878 215.024H133.463V222.439H140.878V215.024Z" fill="currentColor"/>
		<path d="M155.707 215.024H148.293V222.439H155.707V215.024Z" fill="currentColor"/>
		<path d="M170.537 215.024H163.122V222.439H170.537V215.024Z" fill="currentColor"/>
		<path d="M177.951 215.024H170.537V222.439H177.951V215.024Z" fill="currentColor"/>
		<path d="M185.366 215.024H177.951V222.439H185.366V215.024Z" fill="currentColor"/>
		<path d="M222.439 215.024H215.024V222.439H222.439V215.024Z" fill="currentColor"/>
		<path d="M229.854 215.024H222.439V222.439H229.854V215.024Z" fill="currentColor"/>
		<path d="M237.268 215.024H229.854V222.439H237.268V215.024Z" fill="currentColor"/>
		<path d="M259.512 215.024H252.098V222.439H259.512V215.024Z" fill="currentColor"/>
		<path d="M289.171 215.024H281.756V222.439H289.171V215.024Z" fill="currentColor"/>
		<path d="M22.2439 222.439H14.8293V229.854H22.2439V222.439Z" fill="currentColor"/>
		<path d="M51.9025 222.439H44.4878V229.854H51.9025V222.439Z" fill="currentColor"/>
		<path d="M66.7317 222.439H59.3171V229.854H66.7317V222.439Z" fill="currentColor"/>
		<path d="M74.1464 222.439H66.7317V229.854H74.1464V222.439Z" fill="currentColor"/>
		<path d="M81.561 222.439H74.1464V229.854H81.561V222.439Z" fill="currentColor"/>
		<path d="M88.9756 222.439H81.561V229.854H88.9756V222.439Z" fill="currentColor"/>
		<path d="M103.805 222.439H96.3903V229.854H103.805V222.439Z" fill="currentColor"/>
		<path d="M118.634 222.439H111.22V229.854H118.634V222.439Z" fill="currentColor"/>
		<path d="M126.049 222.439H118.634V229.854H126.049V222.439Z" fill="currentColor"/>
		<path d="M133.463 222.439H126.049V229.854H133.463V222.439Z" fill="currentColor"/>
		<path d="M148.293 222.439H140.878V229.854H148.293V222.439Z" fill="currentColor"/>
		<path d="M185.366 222.439H177.951V229.854H185.366V222.439Z" fill="currentColor"/>
		<path d="M200.195 222.439H192.78V229.854H200.195V222.439Z" fill="currentColor"/>
		<path d="M207.61 222.439H200.195V229.854H207.61V222.439Z" fill="currentColor"/>
		<path d="M229.854 222.439H222.439V229.854H229.854V222.439Z" fill="currentColor"/>
		<path d="M237.268 222.439H229.854V229.854H237.268V222.439Z" fill="currentColor"/>
		<path d="M244.683 222.439H237.268V229.854H244.683V222.439Z" fill="currentColor"/>
		<path d="M252.098 222.439H244.683V229.854H252.098V222.439Z" fill="currentColor"/>
		<path d="M259.512 222.439H252.098V229.854H259.512V222.439Z" fill="currentColor"/>
		<path d="M266.927 222.439H259.512V229.854H266.927V222.439Z" fill="currentColor"/>
		<path d="M274.341 222.439H266.927V229.854H274.341V222.439Z" fill="currentColor"/>
		<path d="M289.171 222.439H281.756V229.854H289.171V222.439Z" fill="currentColor"/>
		<path d="M81.561 229.854H74.1464V237.268H81.561V229.854Z" fill="currentColor"/>
		<path d="M88.9756 229.854H81.561V237.268H88.9756V229.854Z" fill="currentColor"/>
		<path d="M96.3903 229.854H88.9756V237.268H96.3903V229.854Z" fill="currentColor"/>
		<path d="M111.22 229.854H103.805V237.268H111.22V229.854Z" fill="currentColor"/>
		<path d="M140.878 229.854H133.463V237.268H140.878V229.854Z" fill="currentColor"/>
		<path d="M177.951 229.854H170.537V237.268H177.951V229.854Z" fill="currentColor"/>
		<path d="M185.366 229.854H177.951V237.268H185.366V229.854Z" fill="currentColor"/>
		<path d="M192.78 229.854H185.366V237.268H192.78V229.854Z" fill="currentColor"/>
		<path d="M207.61 229.854H200.195V237.268H207.61V229.854Z" fill="currentColor"/>
		<path d="M222.439 229.854H215.024V237.268H222.439V229.854Z" fill="currentColor"/>
		<path d="M229.854 229.854H222.439V237.268H229.854V229.854Z" fill="currentColor"/>
		<path d="M259.512 229.854H252.098V237.268H259.512V229.854Z" fill="currentColor"/>
		<path d="M81.561 237.268H74.1464V244.683H81.561V237.268Z" fill="currentColor"/>
		<path d="M88.9756 237.268H81.561V244.683H88.9756V237.268Z" fill="currentColor"/>
		<path d="M103.805 237.268H96.3903V244.683H103.805V237.268Z" fill="currentColor"/>
		<path d="M118.634 237.268H111.22V244.683H118.634V237.268Z" fill="currentColor"/>
		<path d="M126.049 237.268H118.634V244.683H126.049V237.268Z" fill="currentColor"/>
		<path d="M140.878 237.268H133.463V244.683H140.878V237.268Z" fill="currentColor"/>
		<path d="M148.293 237.268H140.878V244.683H148.293V237.268Z" fill="currentColor"/>
		<path d="M163.122 237.268H155.707V244.683H163.122V237.268Z" fill="currentColor"/>
		<path d="M177.951 237.268H170.537V244.683H177.951V237.268Z" fill="currentColor"/>
		<path d="M200.195 237.268H192.78V244.683H200.195V237.268Z" fill="currentColor"/>
		<path d="M207.61 237.268H200.195V244.683H207.61V237.268Z" fill="currentColor"/>
		<path d="M215.024 237.268H207.61V244.683H215.024V237.268Z" fill="currentColor"/>
		<path d="M229.854 237.268H222.439V244.683H229.854V237.268Z" fill="currentColor"/>
		<path d="M244.683 237.268H237.268V244.683H244.683V237.268Z" fill="currentColor"/>
		<path d="M259.512 237.268H252.098V244.683H259.512V237.268Z" fill="currentColor"/>
		<path d="M266.927 237.268H259.512V244.683H266.927V237.268Z" fill="currentColor"/>
		<path d="M281.756 237.268H274.341V244.683H281.756V237.268Z" fill="currentColor"/>
		<path d="M289.171 237.268H281.756V244.683H289.171V237.268Z" fill="currentColor"/>
		<path d="M81.561 244.683H74.1464V252.098H81.561V244.683Z" fill="currentColor"/>
		<path d="M88.9756 244.683H81.561V252.098H88.9756V244.683Z" fill="currentColor"/>
		<path d="M96.3903 244.683H88.9756V252.098H96.3903V244.683Z" fill="currentColor"/>
		<path d="M103.805 244.683H96.3903V252.098H103.805V244.683Z" fill="currentColor"/>
		<path d="M118.634 244.683H111.22V252.098H118.634V244.683Z" fill="currentColor"/>
		<path d="M163.122 244.683H155.707V252.098H163.122V244.683Z" fill="currentColor"/>
		<path d="M170.537 244.683H163.122V252.098H170.537V244.683Z" fill="currentColor"/>
		<path d="M177.951 244.683H170.537V252.098H177.951V244.683Z" fill="currentColor"/>
		<path d="M185.366 244.683H177.951V252.098H185.366V244.683Z" fill="currentColor"/>
		<path d="M192.78 244.683H185.366V252.098H192.78V244.683Z" fill="currentColor"/>
		<path d="M215.024 244.683H207.61V252.098H215.024V244.683Z" fill="currentColor"/>
		<path d="M229.854 244.683H222.439V252.098H229.854V244.683Z" fill="currentColor"/>
		<path d="M259.512 244.683H252.098V252.098H259.512V244.683Z" fill="currentColor"/>
		<path d="M81.561 252.098H74.1464V259.512H81.561V252.098Z" fill="currentColor"/>
		<path d="M103.805 252.098H96.3903V259.512H103.805V252.098Z" fill="currentColor"/>
		<path d="M111.22 252.098H103.805V259.512H111.22V252.098Z" fill="currentColor"/>
		<path d="M126.049 252.098H118.634V259.512H126.049V252.098Z" fill="currentColor"/>
		<path d="M133.463 252.098H126.049V259.512H133.463V252.098Z" fill="currentColor"/>
		<path d="M140.878 252.098H133.463V259.512H140.878V252.098Z" fill="currentColor"/>
		<path d="M148.293 252.098H140.878V259.512H148.293V252.098Z" fill="currentColor"/>
		<path d="M163.122 252.098H155.707V259.512H163.122V252.098Z" fill="currentColor"/>
		<path d="M177.951 252.098H170.537V259.512H177.951V252.098Z" fill="currentColor"/>
		<path d="M192.78 252.098H185.366V259.512H192.78V252.098Z" fill="currentColor"/>
		<path d="M207.61 252.098H200.195V259.512H207.61V252.098Z" fill="currentColor"/>
		<path d="M215.024 252.098H207.61V259.512H215.024V252.098Z" fill="currentColor"/>
		<path d="M222.439 252.098H215.024V259.512H222.439V252.098Z" fill="currentColor"/>
		<path d="M229.854 252.098H222.439V259.512H229.854V252.098Z" fill="currentColor"/>
		<path d="M237.268 252.098H229.854V259.512H237.268V252.098Z" fill="currentColor"/>
		<path d="M244.683 252.098H237.268V259.512H244.683V252.098Z" fill="currentColor"/>
		<path d="M252.098 252.098H244.683V259.512H252.098V252.098Z" fill="currentColor"/>
		<path d="M259.512 252.098H252.098V259.512H259.512V252.098Z" fill="currentColor"/>
		<path d="M274.341 252.098H266.927V259.512H274.341V252.098Z" fill="currentColor"/>
		<path d="M281.756 252.098H274.341V259.512H281.756V252.098Z" fill="currentColor"/>
		<path d="M289.171 252.098H281.756V259.512H289.171V252.098Z" fill="currentColor"/>
		<path d="M81.561 259.512H74.1464V266.927H81.561V259.512Z" fill="currentColor"/>
		<path d="M118.634 259.512H111.22V266.927H118.634V259.512Z" fill="currentColor"/>
		<path d="M140.878 259.512H133.463V266.927H140.878V259.512Z" fill="currentColor"/>
		<path d="M148.293 259.512H140.878V266.927H148.293V259.512Z" fill="currentColor"/>
		<path d="M155.707 259.512H148.293V266.927H155.707V259.512Z" fill="currentColor"/>
		<path d="M170.537 259.512H163.122V266.927H170.537V259.512Z" fill="currentColor"/>
		<path d="M177.951 259.512H170.537V266.927H177.951V259.512Z" fill="currentColor"/>
		<path d="M185.366 259.512H177.951V266.927H185.366V259.512Z" fill="currentColor"/>
		<path d="M200.195 259.512H192.78V266.927H200.195V259.512Z" fill="currentColor"/>
		<path d="M207.61 259.512H200.195V266.927H207.61V259.512Z" fill="currentColor"/>
		<path d="M215.024 259.512H207.61V266.927H215.024V259.512Z" fill="currentColor"/>
		<path d="M222.439 259.512H215.024V266.927H222.439V259.512Z" fill="currentColor"/>
		<path d="M244.683 259.512H237.268V266.927H244.683V259.512Z" fill="currentColor"/>
		<path d="M259.512 259.512H252.098V266.927H259.512V259.512Z" fill="currentColor"/>
		<path d="M274.341 259.512H266.927V266.927H274.341V259.512Z" fill="currentColor"/>
		<path d="M281.756 259.512H274.341V266.927H281.756V259.512Z" fill="currentColor"/>
		<path d="M81.561 266.927H74.1464V274.341H81.561V266.927Z" fill="currentColor"/>
		<path d="M88.9756 266.927H81.561V274.341H88.9756V266.927Z" fill="currentColor"/>
		<path d="M96.3903 266.927H88.9756V274.341H96.3903V266.927Z" fill="currentColor"/>
		<path d="M118.634 266.927H111.22V274.341H118.634V266.927Z" fill="currentColor"/>
		<path d="M126.049 266.927H118.634V274.341H126.049V266.927Z" fill="currentColor"/>
		<path d="M133.463 266.927H126.049V274.341H133.463V266.927Z" fill="currentColor"/>
		<path d="M140.878 266.927H133.463V274.341H140.878V266.927Z" fill="currentColor"/>
		<path d="M163.122 266.927H155.707V274.341H163.122V266.927Z" fill="currentColor"/>
		<path d="M177.951 266.927H170.537V274.341H177.951V266.927Z" fill="currentColor"/>
		<path d="M215.024 266.927H207.61V274.341H215.024V266.927Z" fill="currentColor"/>
		<path d="M237.268 266.927H229.854V274.341H237.268V266.927Z" fill="currentColor"/>
		<path d="M252.098 266.927H244.683V274.341H252.098V266.927Z" fill="currentColor"/>
		<path d="M274.341 266.927H266.927V274.341H274.341V266.927Z" fill="currentColor"/>
		<path d="M289.171 266.927H281.756V274.341H289.171V266.927Z" fill="currentColor"/>
		<path d="M81.561 274.341H74.1464V281.756H81.561V274.341Z" fill="currentColor"/>
		<path d="M88.9756 274.341H81.561V281.756H88.9756V274.341Z" fill="currentColor"/>
		<path d="M111.22 274.341H103.805V281.756H111.22V274.341Z" fill="currentColor"/>
		<path d="M118.634 274.341H111.22V281.756H118.634V274.341Z" fill="currentColor"/>
		<path d="M133.463 274.341H126.049V281.756H133.463V274.341Z" fill="currentColor"/>
		<path d="M140.878 274.341H133.463V281.756H140.878V274.341Z" fill="currentColor"/>
		<path d="M148.293 274.341H140.878V281.756H148.293V274.341Z" fill="currentColor"/>
		<path d="M155.707 274.341H148.293V281.756H155.707V274.341Z" fill="currentColor"/>
		<path d="M163.122 274.341H155.707V281.756H163.122V274.341Z" fill="currentColor"/>
		<path d="M170.537 274.341H163.122V281.756H170.537V274.341Z" fill="currentColor"/>
		<path d="M177.951 274.341H170.537V281.756H177.951V274.341Z" fill="currentColor"/>
		<path d="M200.195 274.341H192.78V281.756H200.195V274.341Z" fill="currentColor"/>
		<path d="M215.024 274.341H207.61V281.756H215.024V274.341Z" fill="currentColor"/>
		<path d="M222.439 274.341H215.024V281.756H222.439V274.341Z" fill="currentColor"/>
		<path d="M229.854 274.341H222.439V281.756H229.854V274.341Z" fill="currentColor"/>
		<path d="M244.683 274.341H237.268V281.756H244.683V274.341Z" fill="currentColor"/>
		<path d="M289.171 274.341H281.756V281.756H289.171V274.341Z" fill="currentColor"/>
		<path d="M96.3903 281.756H88.9756V289.171H96.3903V281.756Z" fill="currentColor"/>
		<path d="M118.634 281.756H111.22V289.171H118.634V281.756Z" fill="currentColor"/>
		<path d="M126.049 281.756H118.634V289.171H126.049V281.756Z" fill="currentColor"/>
		<path d="M140.878 281.756H133.463V289.171H140.878V281.756Z" fill="currentColor"/>
		<path d="M155.707 281.756H148.293V289.171H155.707V281.756Z" fill="currentColor"/>
		<path d="M163.122 281.756H155.707V289.171H163.122V281.756Z" fill="currentColor"/>
		<path d="M170.537 281.756H163.122V289.171H170.537V281.756Z" fill="currentColor"/>
		<path d="M177.951 281.756H170.537V289.171H177.951V281.756Z" fill="currentColor"/>
		<path d="M185.366 281.756H177.951V289.171H185.366V281.756Z" fill="currentColor"/>
		<path d="M207.61 281.756H200.195V289.171H207.61V281.756Z" fill="currentColor"/>
		<path d="M215.024 281.756H207.61V289.171H215.024V281.756Z" fill="currentColor"/>
		<path d="M237.268 281.756H229.854V289.171H237.268V281.756Z" fill="currentColor"/>
		<path d="M252.098 281.756H244.683V289.171H252.098V281.756Z" fill="currentColor"/>
		<path d="M266.927 281.756H259.512V289.171H266.927V281.756Z" fill="currentColor"/>
		<path d="M274.341 281.756H266.927V289.171H274.341V281.756Z" fill="currentColor"/>
		<path d="M281.756 281.756H274.341V289.171H281.756V281.756Z" fill="currentColor"/>
		<path d="M289.171 281.756H281.756V289.171H289.171V281.756Z" fill="currentColor"/>
		</symbol>

</svg>